<?xml version="1.0" encoding="utf-8"?>
<!-- Generator: Adobe Illustrator 23.0.1, SVG Export Plug-In . SVG Version: 6.00 Build 0)  -->
<svg version="1.1" id="Layer_1" xmlns="http://www.w3.org/2000/svg" xmlns:xlink="http://www.w3.org/1999/xlink" x="0px" y="0px"
	 viewBox="0 0 40 40" style="enable-background:new 0 0 40 40;" xml:space="preserve">
<style type="text/css">
	.st0{display:none;fill:#00A3E0;}
	.st1{fill:#FFFFFF;}
	.st2{fill:none;stroke:#FFFFFF;stroke-width:2;stroke-miterlimit:10;}
</style>
<path class="st0" d="M35.74,40H4.26C1.92,40,0,38.08,0,35.74V4.26C0,1.92,1.92,0,4.26,0h31.48C38.08,0,40,1.92,40,4.26v31.48
	C40,38.08,38.08,40,35.74,40z"/>
<path class="st1" d="M25.22,23.92l-6.8-6.9v4.28c0,0-14.75,3.07-16.09-4c-0.36-1.89,2.38-3.4,3.34-3.69l-0.01-1.16
	c-0.95,0-5.38,2.25-5.56,5.82c0,9.21,16.07,7.33,18.33,7.33c0,0.72,0,4.3,0,4.3L25.22,23.92z"/>
<polyline class="st2" points="5.15,17.76 5.15,9.96 33.85,9.96 33.85,35.07 5.15,35.07 5.15,26.31 "/>
<polyline class="st2" points="10.28,11.04 10.28,4.93 38.98,4.93 38.98,31.05 33.99,31.05 "/>
</svg>
