<?xml version="1.0" encoding="utf-8"?>
<!-- Generator: Adobe Illustrator 22.1.0, SVG Export Plug-In . SVG Version: 6.00 Build 0)  -->
<svg version="1.1" id="Layer_1" xmlns="http://www.w3.org/2000/svg" xmlns:xlink="http://www.w3.org/1999/xlink" x="0px" y="0px"
	 viewBox="0 0 72 81.2" style="enable-background:new 0 0 72 81.2;" xml:space="preserve">
<style type="text/css">
	.st0{fill:#707070;}
	.st1{fill:#003C71;}
	.st2{fill:#49C5B1;}
</style>
<path class="st0" d="M58.5,65.3c-8.7,20.1-30.6,8.1-29.6-3.6c11.5-0.9,22.9-13.1,22.9-29.4H47c0,13.8-9.1,24.9-20.5,24.9
	S6.1,46,6.1,32.3H1.2c0,16.2,11.5,28.5,22.9,29.4c0,10.8,9.9,19.6,19.8,19.6c8.6,0,17.2-6.6,19.8-15.8c-0.7,0.2-1.5,0.3-2.2,0.3
	C60.4,65.7,59.4,65.5,58.5,65.3z"/>
<g id="dark">
	<path class="st1" d="M14.3,5.6C7.5,5.6,2,10.1,2,15.7v16.6h3.2V15.7c0-3.8,4.1-6.9,9.1-6.9V5.6z"/>
	<path class="st1" d="M38.9,5.6c6.8,0,12.2,4.5,12.2,10.1v16.6H48V15.7c0-3.8-4.1-6.9-9.1-6.9V5.6z"/>
	<path class="st1" d="M61.4,46.7c-5.3,0-9.5,4.3-9.5,9.5s4.3,9.5,9.5,9.5s9.5-4.3,9.5-9.5S66.6,46.7,61.4,46.7z M61.4,62.8
		c-3.7,0-6.6-3-6.6-6.6c0-3.7,3-6.6,6.6-6.6c3.7,0,6.6,3,6.6,6.6C68,59.8,65,62.8,61.4,62.8z"/>
</g>
<g id="light">
	<path class="st2" d="M14.3,8.8c0.4,1.4,6,3.5,7.9,0V5.6c-1.9-3.5-7.6-1.4-7.9,0V8.8z"/>
	<path class="st2" d="M38.9,8.8c-0.4,1.4-6,3.5-7.9,0V5.6c1.9-3.5,7.6-1.4,7.9,0V8.8z"/>
	<circle class="st2" cx="61.4" cy="56.2" r="4.4"/>
</g>
</svg>
