<?xml version="1.0" encoding="utf-8"?>
<!-- Generator: Adobe Illustrator 21.1.0, SVG Export Plug-In . SVG Version: 6.00 Build 0)  -->
<svg version="1.1" id="Layer_2" xmlns="http://www.w3.org/2000/svg" xmlns:xlink="http://www.w3.org/1999/xlink" x="0px" y="0px"
	 viewBox="0 0 99.7 55.4" style="enable-background:new 0 0 99.7 55.4;" xml:space="preserve">
<style type="text/css">
	.st0{fill:#2C766A;}
	.st1{fill:#49C5B1;}
</style>
<path id="dark" class="st0" d="M93.7,56.3H6c-0.3,0-0.5-0.2-0.5-0.5v-0.4c0-3.1-2.5-5.6-5.6-5.6c-0.3,0-0.5-0.2-0.5-0.5v-7.2
	c0-0.3,0.2-0.5,0.5-0.5H0c2.3,0,4.2-1.9,4.2-4.2c0-2.3-1.9-4.2-4.2-4.2h-0.1c-0.3,0-0.5-0.2-0.5-0.5V23c0-0.3,0.2-0.5,0.5-0.5
	c2.3,0,4.1-1.9,4.1-4.2c0-2.3-1.8-4.1-4.1-4.2c-0.3,0-0.5-0.2-0.5-0.5V6.1c0-0.3,0.2-0.5,0.5-0.5C3,5.6,5.5,3.1,5.5,0
	c0-0.3,0.2-0.5,0.5-0.5h87.7c0.3,0,0.5,0.2,0.5,0.5c0,3.1,2.5,5.6,5.6,5.6c0.3,0,0.5,0.2,0.5,0.5v7.7c0,0.3-0.2,0.5-0.5,0.5h-0.2
	c-2.3,0-4.2,1.9-4.2,4.2s1.9,4.2,4.2,4.2h0.2c0.3,0,0.5,0.2,0.5,0.5v9.9c0,0.3-0.2,0.5-0.5,0.5c-2.3,0-4.2,1.9-4.2,4.2
	s1.9,4.2,4.2,4.2c0.3,0,0.5,0.2,0.5,0.5v7.2c0,0.3-0.2,0.5-0.5,0.5c-3.1,0-5.6,2.5-5.6,5.6C94.2,56.1,94,56.3,93.7,56.3z M6.5,55.3
	h86.7c0.2-3.2,2.8-5.8,6.1-6.1V43c-2.6-0.3-4.7-2.5-4.7-5.2s2.1-4.9,4.7-5.2v-8.9c-2.7-0.2-4.9-2.4-4.9-5.2s2.2-5,4.9-5.2V6.6
	c-3.2-0.2-5.8-2.8-6.1-6.1H6.5C6.2,3.7,3.6,6.3,0.4,6.6v6.6C3,13.5,5,15.7,5,18.3c0,2.7-2,4.9-4.6,5.2v8.7c2.7,0.2,4.8,2.5,4.8,5.2
	s-2.1,5-4.8,5.2v6.2C3.8,49.1,6.4,51.9,6.5,55.3z"/>
<g id="light_4_">
	<path id="light_2_" class="st1" d="M42.9,24.5c-0.4,0-0.7,0-0.8,0.1v5.3c0.2,0,0.4,0,0.6,0c1.7,0,2.7-0.9,2.7-2.8
		C45.4,25.4,44.4,24.5,42.9,24.5z"/>
	<path id="light_1_" class="st1" d="M35.4,24.5c-0.1,0.5-0.2,1.1-0.4,1.6l-0.5,1.7h1.8l-0.5-1.7C35.7,25.6,35.5,25,35.4,24.5z"/>
	<path id="light_3_" class="st1" d="M99.6,13.8c0.1,0,0.1,0,0.2,0V6.1c-3.4,0-6.1-2.8-6.1-6.1H6c0,3.3-2.7,6.1-6.1,6.1v7.5
		c2.6,0.1,4.6,2.2,4.6,4.7c0,2.6-2.1,4.7-4.6,4.7v9.7H0c2.6,0,4.7,2.1,4.7,4.7S2.6,42.1,0,42.1c-0.1,0-0.1,0-0.1,0v7.2
		c3.4,0,6.1,2.8,6.1,6.1v0.4h87.7c0-3.4,2.8-6.1,6.1-6.1v-7.2c-2.6,0-4.7-2.1-4.7-4.7c0-2.6,2.1-4.7,4.7-4.7v-9.9
		c-0.1,0-0.1,0-0.2,0c-2.6,0-4.7-2.1-4.7-4.7C94.9,15.9,97,13.8,99.6,13.8z M88.7,40.8c0,2.6-2.2,4.8-4.8,4.8H15.8
		c-2.7,0-4.8-2.1-4.8-4.8v-26c0-2.7,2.1-4.8,4.8-4.8h68.1c2.7,0,4.8,2.1,4.8,4.8V40.8z"/>
	<path id="light" class="st1" d="M83.9,11H15.8c-2.1,0-3.8,1.7-3.8,3.8v26c0,2.1,1.7,3.8,3.8,3.8h68.1c2,0,3.8-1.8,3.8-3.8v-26
		C87.7,12.7,86,11,83.9,11z M37.2,31.3l-0.6-2.1h-2.3l-0.6,2.1h-1.9l2.5-8.1h2.4l2.5,8.1H37.2z M46.2,30.3c-0.9,0.7-2.1,1-3.7,1
		c-0.9,0-1.6-0.1-2.1-0.1v-7.9h-0.1c0.7-0.1,1.5-0.2,2.5-0.2c1.5,0,2.5,0.3,3.3,0.9c0.8,0.6,1.4,1.6,1.4,3
		C47.5,28.5,46.9,29.6,46.2,30.3z M55.7,31.2l-0.2-3c0-1-0.1-2.1-0.1-3.3c-0.3,1-0.6,2.2-0.9,3.1l-1,3.2h-1.4L51.2,28
		c-0.3-0.9-0.5-2.1-0.7-3.2c0,1.1-0.1,2.3-0.1,3.3l-0.1,3.1h-1.7l0.5-8.1h2.4l0.8,2.7c0.3,0.9,0.5,1.9,0.7,2.9
		c0.2-0.9,0.5-2,0.8-2.9l0.9-2.7h2.4l0.4,8.1H55.7z M60.6,31.3h-1.8v-8.1h1.8V31.3z M67.8,24.7h-2.2v6.5h-1.8v-6.5h-2.2v-1.5h6.2
		V24.7z"/>
</g>
</svg>
