<?xml version="1.0" encoding="utf-8"?>
<!-- Generator: Adobe Illustrator 19.1.0, SVG Export Plug-In . SVG Version: 6.00 Build 0)  -->
<svg version="1.1" id="Layer_1" xmlns="http://www.w3.org/2000/svg" xmlns:xlink="http://www.w3.org/1999/xlink" x="0px" y="0px"
	 viewBox="0 0 41.6 36.6" style="enable-background:new 0 0 41.6 36.6;" xml:space="preserve">
<style type="text/css">
	.st0{fill:#003E6B;}
	.st1{fill:#FFFFFF;}
	.st2{fill:#00467F;}
</style>
<g>
	<g>
		<g>
			<g>
				<rect class="st0" width="36.6" height="36.6"/>
			</g>
		</g>
		<g>
			<g>
				<path class="st1" d="M3.7,24.4V11.8h3.1c2.9,0,4.2,0.9,4.2,3.3c0,1.3-0.6,2.2-1.6,2.7v0c1.4,0.5,1.9,1.6,1.9,3
					c0,2.9-1.9,3.6-4.3,3.6H3.7z M6.9,17c1.1,0,2-0.4,2-1.8c0-1.4-1-1.6-2-1.6H5.7V17H6.9z M7.1,22.5c1.5,0,2.1-0.5,2.1-1.9
					c0-1.4-0.7-1.9-2.1-1.9H5.7v3.8H7.1z"/>
			</g>
			<g>
				<path class="st1" d="M20.5,20.3c-0.4,2.8-1.6,4.3-3.9,4.3c-3,0-4-2.5-4-6.5c0-3.6,1.1-6.4,4-6.4c2.4,0,3.4,1.5,3.7,4.1l-1.9,0.2
					c-0.3-1.6-0.8-2.4-1.7-2.4c-1.3,0-1.9,1.4-1.9,4.5c0,3.5,0.6,4.7,1.9,4.7c1,0,1.6-0.9,1.9-2.6L20.5,20.3z"/>
			</g>
			<g>
				<path class="st1" d="M22.3,24.4V11.8h2.1v12.6H22.3z"/>
			</g>
			<g>
				<path class="st1" d="M28.7,24.4V13.7h-2.6v-1.9h7.3v1.9h-2.6v10.7H28.7z"/>
			</g>
		</g>
	</g>
	<g>
		<path class="st2" d="M37.5,3.1V0.9H37V0.4h1.6v0.5H38v2.2H37.5z M40.5,3.1V1.2h0l-0.4,1.8h-0.4l-0.4-1.8h0v1.8h-0.5V0.4h0.7
			l0.4,1.7h0l0.4-1.7H41v2.7H40.5z"/>
	</g>
</g>
</svg>
