<?xml version="1.0" encoding="utf-8"?>
<!-- Generator: Adobe Illustrator 21.1.0, SVG Export Plug-In . SVG Version: 6.00 Build 0)  -->
<svg version="1.1" id="Video" xmlns="http://www.w3.org/2000/svg" xmlns:xlink="http://www.w3.org/1999/xlink" x="0px" y="0px"
	 viewBox="0 0 128 128" style="enable-background:new 0 0 128 128;" xml:space="preserve">
<style type="text/css">
	.st0{fill:#49C5B1;}
	.st1{fill:#2C766A;}
</style>
<title>Video</title>
<path id="dark_1_" class="st0" d="M123.7,14.8H12.2c-2.4,0-4.3,1.9-4.3,4.3v46.2c4.2-4,9.4-6.8,15-8.1V28.9c0-1.8,1.5-3.2,3.2-3.2
	h83.6c1.8,0,3.2,1.5,3.2,3.2v58.7c0,1.8-1.5,3.2-3.2,3.2H62.9c-0.2,3.7-1.1,7.4-2.6,10.9h63.5c2.4,0,4.3-1.9,4.3-4.3V19.1
	C128,16.7,126.1,14.8,123.7,14.8z"/>
<path id="dark" class="st0" d="M61.2,78.2H108l-9.3-27.3l-4.3,2.2l-9.3-10.5v0.1l-9.8,11l-11.5,13l-9.5-4.5l-2.6,1.9
	C56.1,68,59.4,72.9,61.2,78.2z"/>
<path id="darkest" class="st1" d="M61.3,43.8L53,48.3l-5.2-8.5l-5.1,4l-4.5-6.9L26.6,56.5c6.7-0.8,13.8,0.5,20.1,4.1
	c0.9,0.5,1.7,1,2.5,1.6l3.3-2.5l1.5-1.1l1.5,0.8l7.5,3.5l9.8-11L61.3,43.8z"/>
<path id="darkest_2_" class="st1" d="M45.7,62.3C31.1,53.9,12.5,58.8,4,73.4c-8.4,14.6-3.4,33.2,11.2,41.7
	c14.6,8.4,33.2,3.4,41.7-11.2C65.3,89.3,60.3,70.7,45.7,62.3z M49.2,89.8c-0.2,0.3-0.5,0.6-0.8,0.8l-25.3,14.6
	c-1,0.6-2.3,0.2-2.9-0.8c-0.2-0.3-0.3-0.7-0.3-1.1V74.1c0-1.2,0.9-2.1,2.1-2.1c0.4,0,0.8,0.1,1.1,0.3l25.3,14.6
	C49.4,87.5,49.8,88.8,49.2,89.8z"/>
</svg>
