<?xml version="1.0" encoding="utf-8"?>
<!-- Generator: Adobe Illustrator 21.1.0, SVG Export Plug-In . SVG Version: 6.00 Build 0)  -->
<svg version="1.1" id="Activity" xmlns="http://www.w3.org/2000/svg" xmlns:xlink="http://www.w3.org/1999/xlink" x="0px" y="0px"
	 viewBox="0 0 128 128" style="enable-background:new 0 0 128 128;" xml:space="preserve">
<style type="text/css">
	.st0{fill:#668AAA;}
	.st1{fill:#003C71;}
</style>
<title>Activity</title>
<g id="dark">
	<path class="st0" d="M77.1,108.2H49c-1,0-1.9,0.8-2,1.8l-1.8,18h35.7l-1.8-18C79,109,78.2,108.2,77.1,108.2z"/>
	<path class="st0" d="M48.5,43c1-2.6,3.5-4.3,6.3-4.5h16.4c2.6,0,4.7,2.1,4.8,4.7v6.7c0,2.6,2.1,4.7,4.7,4.7h1
		c1.3,0,2.5,0.5,3.5,1.3l1.2,0.3c1.4-11.5-1.1-24.6-2.4-30c-0.4-1.6-1.6-2.8-3.2-3.2c-4.6-1.1-9.4-1.7-14.1-1.8h-0.3
		c-4.8,0.2-9.5,0.8-14.1,2c-1.6,0.4-2.8,1.6-3.2,3.2c-0.9,4-2.3,12-2.4,20.5l0.4,0.1L48.5,43z"/>
</g>
<g id="darkest">
	<path class="st1" d="M86.4,58.2c-0.1,0-0.2,0-0.2,0c-1.1-0.1-1.9-1.1-1.7-2.2c1.5-12.3-1.7-26.6-2.4-29.3c-0.2-0.9-0.9-1.5-1.7-1.7
		c-4.4-1.1-9-1.6-13.7-1.7l-0.3,0c-4.9,0.2-9.4,0.8-13.6,1.9c-0.9,0.2-1.5,0.9-1.8,1.7c-0.5,2.3-2.2,10.6-2.3,20c0,1.1-0.9,2-2,2
		c0,0,0,0,0,0c-1.1,0-2-0.9-2-2c0.1-9.8,1.9-18.5,2.4-20.9c0.6-2.4,2.3-4.1,4.7-4.7c4.5-1.2,9.2-1.8,14.5-2.1l0.4,0
		c5,0.1,9.9,0.7,14.6,1.9c2.4,0.6,4.1,2.3,4.7,4.7c1,4,4,18.1,2.4,30.7C88.3,57.5,87.4,58.2,86.4,58.2z"/>
	<path class="st1" d="M83.1,109.8c-0.2-3.1-2.8-5.6-6-5.6H49c-3.2,0-5.8,2.4-6,5.6L41.2,128h2l1.8-18.1L43.3,128h2l1.7-18
		c0.1-1,0.9-1.9,2-1.9h28.1c1.1,0,1.9,0.8,2,1.9l1.8,18h2h2L83.1,109.8z"/>
	<path class="st1" d="M76,107.5c-1.1,0-2-0.9-2-1.9l-0.2-5.9c0-1.1,0.8-2,1.9-2.1c2-0.1,3.8-1.3,4.6-3.2l6.2-15.8
		c0.9-2.5,1.1-5.3,0.8-8.1l-2-10.8c-0.4-1.7-1.9-3-3.7-3.1l-0.9,0c-3.7,0-6.7-3-6.7-6.7v-6.7c-0.1-1.5-1.3-2.7-2.8-2.7H54.9
		c-2.1,0.2-3.8,1.4-4.5,3.2l-8.2,23.7c-0.8,2.5-0.9,5.2-0.3,7.8l5.5,19c0.6,1.8,2.2,3.1,4.1,3.2c1.1,0,1.9,0.9,1.9,2l0.1,5.9
		c0,1.1-0.9,2-2,2c-1.1,0-2-0.9-2-2l-0.1-4.2c-2.7-0.7-5-2.8-5.9-5.7l-5.5-19.2c0,0,0-0.1,0-0.1c-0.8-3.3-0.7-6.8,0.3-10l8.2-23.9
		c1.3-3.3,4.4-5.6,8-5.8c0,0,0.1,0,0.1,0h16.4c3.7,0,6.7,2.9,6.8,6.6l0,6.8c0,1.5,1.2,2.7,2.7,2.7h1c3.7,0.1,6.8,2.7,7.6,6.3l2,11
		c0,0,0,0.1,0,0.1c0.4,3.4,0.1,6.8-1,10l-6.2,16c-1.1,2.7-3.5,4.7-6.2,5.4l0.1,4.1C78,106.5,77.2,107.5,76,107.5
		C76,107.5,76,107.5,76,107.5z"/>
	<path class="st1" d="M75.9,77.9C75.9,77.9,75.9,77.9,75.9,77.9c-1.1,0-2-0.9-2-2L74,46.1c0-1.1,0.9-2,2-2c0,0,0,0,0,0
		c1.1,0,2,0.9,2,2l-0.1,29.8C77.9,77,77,77.9,75.9,77.9z"/>
	<path class="st1" d="M70.8,0h-2.2c-2.6,5-3.9,11.6-4,19.9c0,1.1,0.9,2,2,2s2-0.9,2-2c0-0.6,0-1.1,0-1.7c0.2-7.9,1.8-14,4.6-18.2
		C73.2,0,70.8,0,70.8,0z"/>
</g>
</svg>
