<?xml version="1.0" encoding="utf-8"?>
<!-- Generator: Adobe Illustrator 21.1.0, SVG Export Plug-In . SVG Version: 6.00 Build 0)  -->
<svg version="1.1" id="Audio" xmlns="http://www.w3.org/2000/svg" xmlns:xlink="http://www.w3.org/1999/xlink" x="0px" y="0px"
	 viewBox="0 0 128 128" style="enable-background:new 0 0 128 128;" xml:space="preserve">
<style type="text/css">
	.st0{fill:#858585;}
	.st1{fill:#666666;}
	.st2{fill:#333333;}
</style>
<title>Audio</title>
<g id="dark">
	<path class="st0" d="M16.1,66.5c0-14.3,6.7-25.8,14.9-25.8l0,0H19.9C11.7,40.7,5,52.3,5,66.5c0,14.3,6.6,25.8,14.9,25.8h10.2l0,0
		C22.3,91.5,16.1,80.2,16.1,66.5z"/>
	<path class="st0" d="M36.7,66.5c0-16.3,5.8-30.3,14-36.2l0,0L27.8,46.8l-0.2,0.1c-4.4,3.3-7.4,10.8-7.4,19.6s3.1,16.3,7.4,19.6
		l0.3,0.2l22.1,16C42.2,96.1,36.7,82.5,36.7,66.5z"/>
	<path class="st0" d="M77.6,66.5c0-17.7-8.3-32-18.5-32c-6.5,0-12.2,5.9-15.5,14.7c0.7-0.3,1.5-0.4,2.3-0.4c5.7,0,10.3,8,10.3,17.8
		s-4.6,17.7-10.3,17.7c-0.8,0-1.6-0.2-2.3-0.5c3.3,8.8,9,14.7,15.5,14.7C69.3,98.5,77.6,84.2,77.6,66.5z"/>
</g>
<path id="darker" class="st1" d="M45.9,84.3c-2.6,0-5-1.7-6.8-4.5c-2.1-3.2-1.3-8-1.3-13.2c0-5.5-0.6-10.5,1.7-13.7
	c1.8-2.5,4-4,6.5-4c5.7,0,10.3,8,10.3,17.8S51.5,84.3,45.9,84.3z"/>
<g id="darkest_1_">
	<path class="st2" d="M5,66.5c0-8.4,2.3-15.8,5.9-20.6C4.8,46.9,0,55.7,0,66.5s4.8,19.6,10.9,20.6C7.3,82.4,5,74.9,5,66.5z"/>
	<path class="st2" d="M27.9,86.1l-0.3-0.2c-4.4-3.3-7.4-10.8-7.4-19.6s3.1-16.3,7.4-19.6l0.2-0.1l7-5c-1.2-0.6-2.5-0.9-3.8-0.9
		c-8.2,0-14.9,11.6-14.9,25.8c0,14.3,6.7,25.8,14.9,25.8c1.4,0,2.8-0.4,4.2-1L27.9,86.1z"/>
	<path class="st2" d="M59.2,98.5c-10.2,0-18.5-14.3-18.5-32s8.3-32,18.5-32s18.5,14.3,18.5,32S69.4,98.5,59.2,98.5z M81.8,66.5
		c0-21.6-10.1-39.1-22.6-39.1S36.7,44.9,36.7,66.5s10.1,39.1,22.6,39.1S81.8,88.1,81.8,66.5z"/>
</g>
<g id="darkest">
	<path class="st2" d="M101.6,66.9c0-13.7-2.8-25.8-7.3-34.6c-1.3-2.5-2.8-4.8-4.6-6.9l-5.2,2.4c2.4,2.6,4.3,5.5,5.7,8.7
		c3.6,7.9,5.9,18.7,5.9,30.3s-2.3,22.5-5.9,30.3c-1.3,2.9-2.9,5.5-4.9,7.9l5.1,2.4c1.5-1.9,2.8-3.9,3.9-6.1
		C98.8,92.8,101.6,80.6,101.6,66.9z"/>
	<path class="st2" d="M114.8,66.8c0-15.2-2.7-28.9-7.1-39.1c-1.3-3-2.8-5.8-4.7-8.4l-5.3,2.5l0.1,0.1c1.7,2.2,3.2,4.6,4.3,7.1
		c0.6,1.2,1.1,2.5,1.6,3.9c3.4,8.9,5.6,20.8,5.6,34s-2.2,25.2-5.6,34c-0.5,1.3-1.1,2.6-1.7,3.9c-1.1,2.3-2.4,4.5-3.9,6.5l5.3,2.5
		c1.7-2.4,3.1-5,4.2-7.8C112.1,95.7,114.8,81.9,114.8,66.8z"/>
	<path class="st2" d="M128,66.6c0-16.6-2.6-32.1-7-43.6c-1.3-3.5-2.9-6.9-4.9-10l-5.3,2.4c0.2,0.3,0.4,0.6,0.6,0.9
		c1.7,2.6,3,5.3,4.1,8.2c0.5,1.4,1.1,2.8,1.6,4.4c3.2,9.9,5.2,22.9,5.2,37.7s-2.1,27.8-5.2,37.7c-0.5,1.5-1,3-1.6,4.4
		c-1.1,2.9-2.5,5.6-4.1,8.2l-0.3,0.4l5.2,2.4c1.8-3,3.4-6.2,4.6-9.5C125.4,98.7,128,83.3,128,66.6z"/>
</g>
</svg>
