<?xml version="1.0" encoding="utf-8"?>
<!-- Generator: Adobe Illustrator 21.1.0, SVG Export Plug-In . SVG Version: 6.00 Build 0)  -->
<svg version="1.1" id="Layer_1" xmlns="http://www.w3.org/2000/svg" xmlns:xlink="http://www.w3.org/1999/xlink" x="0px" y="0px"
	 viewBox="0 0 128 128" style="enable-background:new 0 0 128 128;" xml:space="preserve">
<style type="text/css">
	.st0{fill:#003C71;}
	.st1{fill:#668AAA;}
</style>
<g id="Case">
	<title>Case</title>
	<g id="darker_1_">
		<path class="st0" d="M32.6,29v-6.2c0-1.9,1.6-3.5,3.5-3.5h9.4c1.9,0,3.5,1.6,3.5,3.5V29"/>
		<path class="st0" d="M79,29v-6.2c0-1.9,1.6-3.5,3.5-3.5h9.4c1.9,0,3.5,1.6,3.5,3.5V29"/>
		<path class="st0" d="M91.9,32.5H36.1l3.3-19.7c0.5-3.3,3.4-5.8,6.8-5.8h35.5c3.4,0,6.3,2.5,6.8,5.8L91.9,32.5z M42.5,27.1h42.9
			l-2.3-13.3c-0.1-0.7-0.7-1.2-1.4-1.2H46.2c-0.7,0-1.3,0.5-1.4,1.2L42.5,27.1z"/>
	</g>
	<g id="darker">
		<polygon class="st0" points="56.1,75.6 0,53.8 0,61.6 55.2,83.1 72.5,83.1 128,62.6 128,54.7 71.6,75.6 		"/>
		<path class="st0" d="M69.4,62H58.7c-2.2,0-3.9,1.7-3.8,3.8v28.7c0,2.1,1.7,3.8,3.8,3.8h10.7c2.1,0,3.8-1.7,3.8-3.8V65.8
			C73.2,63.7,71.5,62,69.4,62z M68,93.3h-7.9v-7.9H68V93.3z"/>
	</g>
	<g id="dark">
		<path class="st1" d="M116.4,25.6H11.6C5.2,25.6,0,30.8,0,37.2v16.6l54.9,21.3v-9.3c-0.1-2.1,1.6-3.8,3.8-3.8h10.7
			c2.1,0,3.8,1.7,3.8,3.8V75L128,54.7V37.2C128,30.8,122.8,25.7,116.4,25.6z"/>
		<path class="st1" d="M73.2,82.8v11.7c0,2.1-1.7,3.8-3.8,3.8H58.7c-2.1,0-3.8-1.7-3.8-3.8V83L0,61.6v45c0,6.4,5.2,11.5,11.6,11.6
			h104.8c6.4,0,11.6-5.2,11.6-11.6v-44L73.2,82.8z"/>
	</g>
</g>
</svg>
