<?xml version="1.0" encoding="utf-8"?>
<!-- Generator: Adobe Illustrator 21.1.0, SVG Export Plug-In . SVG Version: 6.00 Build 0)  -->
<svg version="1.1" id="Definition" xmlns="http://www.w3.org/2000/svg" xmlns:xlink="http://www.w3.org/1999/xlink" x="0px" y="0px"
	 viewBox="0 0 128 128" style="enable-background:new 0 0 128 128;" xml:space="preserve">
<style type="text/css">
	.st0{fill:#D8A560;}
	.st1{fill:none;}
	.st2{fill:#CE8E38;}
	.st3{fill:#FFFFFF;}
</style>
<title>Definition</title>
<g id="light">
	<path class="st0" d="M7.4,88.2V16.7c-1.3,0.3-3.3,0.7-5.7,1.2v79.7c16.1-4.3,46.8-1.6,58-0.5c-5.5-2.5-19.5-6.8-50.6-7.2
		C8.2,89.9,7.4,89.2,7.4,88.2z"/>
	<path class="st0" d="M120.6,16.7v71.6c0,0.9-0.8,1.7-1.7,1.7c-31,0.3-45.1,4.7-50.6,7.2c11.3-1.2,41.9-3.8,58,0.5V17.9
		C123.8,17.4,121.9,17,120.6,16.7z"/>
</g>
<g id="dark_1_">
	<path class="st1" d="M9.3,89.9c-0.9,0-1.7-0.8-1.7-1.7V18.4c-1,0.3-2.4,0.6-4,0.9v76.1c5.4-1.1,11.9-1.7,18.7-1.8l-0.9-3.3
		C17.7,90.1,13.7,89.9,9.3,89.9z"/>
	<path class="st2" d="M126.6,16.2c-2.7-0.5-4.8-1-6-1.3V8.5c0-0.9-0.8-1.7-1.7-1.7c-37.8,0.4-51.2,6.7-54.8,9
		c-3.7-2.4-17.1-8.6-54.8-9c-0.9,0-1.7,0.8-1.7,1.7v6.4c-1.3,0.3-3.4,0.8-6,1.3c-1,0.2-1.6,0.9-1.6,1.7v79.7c0,0.2,0,0.4,0.1,0.5
		c0.2,0.9,1.2,1.4,2.1,1.2c5.9-1.6,13.9-2.2,22.1-2.3c-0.7-0.3-1.3-0.9-1.5-1.7l-0.5-1.7C15.5,93.7,9,94.3,3.6,95.4V19.3
		c1.6-0.3,3-0.6,4-0.9v69.8c0,0.9,0.8,1.7,1.7,1.7c4.4,0,8.4,0.2,12.1,0.3l-1-3.5c-3-0.1-6.2-0.2-9.6-0.3V10.3
		c36.8,0.6,48.9,6.9,51.5,8.5v75.8c-2.4-1.3-6.6-3-13.5-4.5l-1.3,3.2c2.1,0.4,4,0.9,5.6,1.4c-1.8-0.2-3.9-0.3-6-0.4l-0.4,1
		c-0.6,1.1-1.7,1.9-3,2c-0.1,0-0.1,0-0.1,0c-0.3,0-0.6,0.1-0.8,0.2c10.9,0.6,19.5,1.6,20.8,1.8c0.1,0,0.3,0,0.4,0
		c0.2,0,0.3,0,0.5-0.1c0.1,0,0.2,0,0.3,0c4.7-0.5,42.9-4.8,61.1,0c0.1,0,0.3,0.1,0.4,0.1c0.9,0,1.7-0.8,1.7-1.7V17.9
		C128,17.1,127.4,16.4,126.6,16.2z M65.8,18.8c2.6-1.7,14.7-7.9,51.4-8.5v76.2c-32.1,0.5-46.1,5.3-51.4,8V18.8z M124.6,95.4
		c-14-3-36.1-1.8-49.5-0.7c7.9-2.2,21.4-4.5,43.8-4.8c0.9,0,1.7-0.8,1.7-1.7V18.4c1,0.2,2.4,0.5,4,0.9V95.4z"/>
	<path class="st2" d="M58.3,85.6c0.7,0,1.3-0.4,1.6-1.1c0.3-1-0.1-2-1-2.3c-1.7-0.7-4-1.5-6.8-2.3c-0.1,1.2-0.3,2.3-0.6,3.4l0,0.1
		c2.7,0.8,4.7,1.5,6.1,2.1C57.8,85.6,58,85.6,58.3,85.6z"/>
	<path class="st2" d="M13,77c0,0.9,0.7,1.7,1.7,1.8c1.3,0,2.6,0.1,3.8,0.1c0-1.2,0.1-2.4,0.4-3.5c-1.3-0.1-2.7-0.1-4-0.2
		C13.9,75.3,13.1,76,13,77z"/>
	<path class="st2" d="M43.9,78.3c0.2,0,0.4,0,0.6-0.1c-0.6-0.1-1.2-0.2-1.9-0.3C43,78.1,43.4,78.3,43.9,78.3z"/>
	<path class="st2" d="M58.3,74.2c0.7,0,1.3-0.4,1.6-1.1c0.3-1-0.1-2-1-2.3c-2.1-0.9-5-1.9-8.7-2.8c0.1,0.5,0.3,1,0.4,1.5l0.4,2.4
		c2.9,0.8,5.1,1.6,6.6,2.2C57.8,74.2,58,74.2,58.3,74.2z"/>
	<path class="st2" d="M13,65.6c0,0.9,0.7,1.7,1.7,1.8c2.4,0.1,4.6,0.2,6.8,0.3l1.2-3.4c-2.5-0.1-5.1-0.3-7.9-0.4
		C13.9,63.9,13.1,64.6,13,65.6z"/>
	<path class="st2" d="M41.9,69.9c1.4,0.2,2.8,0.5,4,0.8V67c-1.3-0.3-2.6-0.5-4-0.7V69.9z"/>
	<path class="st2" d="M58.3,62.8c0.7,0,1.3-0.4,1.6-1.1c0.3-1-0.1-2-1-2.3c-3.5-1.5-8.9-3.1-17-4.5v3.6c1.4,0.2,2.8,0.5,4,0.8v-1
		c1.2-0.4,2.3-0.7,2.6-0.5c0.1,0.1,0.1,0.3,0.1,0.4c0,0.6,0.1,1.2,0.1,1.8c4.1,1,7,2,8.9,2.8C57.8,62.8,58,62.8,58.3,62.8z"/>
	<path class="st2" d="M13,54.2c0,0.9,0.7,1.7,1.7,1.8c3.9,0.1,7.5,0.3,10.8,0.6c0.6-0.8,1.5-1.3,2.5-1.4h6.5v2.2
		c1.4,0.2,2.7,0.3,4,0.5v-3.5c-6.3-0.9-14.1-1.6-23.7-1.9C13.9,52.5,13.1,53.2,13,54.2z"/>
	<path class="st2" d="M14.7,41c-0.9,0-1.7,0.8-1.7,1.7c0,0.9,0.7,1.7,1.7,1.8c9.7,0.3,17.6,1,23.8,1.9v-3.5
		C32.2,42,24.4,41.3,14.7,41L14.7,41z"/>
	<path class="st2" d="M58.3,51.3c0.7,0,1.3-0.4,1.6-1.1c0.3-0.9-0.1-1.9-1-2.3c-3.5-1.5-8.9-3.1-17-4.5V47c8,1.4,13,3,15.7,4.2
		C57.8,51.3,58,51.3,58.3,51.3z"/>
	<path class="st2" d="M14.7,33.2c25.5,0.8,37.9,4.5,42.9,6.7C57.8,40,58,40,58.3,40c0.7,0,1.3-0.4,1.6-1.1c0.3-1-0.1-2-1-2.3
		c-6.4-2.7-19.3-6.1-44.1-6.9c-0.9,0-1.7,0.7-1.8,1.7C13,32.3,13.7,33.1,14.7,33.2z"/>
	<path class="st2" d="M14.7,21.7c25.5,0.8,37.9,4.5,42.9,6.7c0.2,0.1,0.4,0.1,0.7,0.1c0.7,0,1.3-0.4,1.6-1.1
		c0.4-0.9-0.1-1.9-0.9-2.2c-6.4-2.7-19.3-6.1-44.1-6.9c-0.9,0-1.7,0.7-1.8,1.7C13,20.8,13.8,21.6,14.7,21.7z"/>
	<path class="st2" d="M113.2,75.2c-24.8,0.8-37.7,4.2-44.1,6.9C68.5,82.4,68,83,68,83.7c0,0.9,0.8,1.7,1.7,1.7c0.2,0,0.5,0,0.7-0.1
		c5-2.1,17.3-5.8,42.9-6.7c0.9,0,1.7-0.8,1.7-1.8C114.9,76,114.1,75.2,113.2,75.2z"/>
	<path class="st2" d="M113.2,63.8c-24.8,0.8-37.7,4.2-44.1,6.9c-0.7,0.3-1.1,1-1.1,1.7c0,0.9,0.8,1.7,1.7,1.7c0.2,0,0.5,0,0.7-0.1
		c5-2.1,17.3-5.8,42.9-6.7c0.9,0,1.7-0.8,1.7-1.8C115,64.6,114.2,63.8,113.2,63.8z"/>
	<path class="st2" d="M113.2,52.4c-24.8,0.8-37.7,4.2-44.1,6.9c-0.7,0.3-1.1,1-1.1,1.7c0,0.9,0.8,1.7,1.7,1.7c0.2,0,0.5,0,0.7-0.1
		c5-2.1,17.3-5.8,42.9-6.7c0.9,0,1.7-0.8,1.7-1.8C115,53.2,114.2,52.4,113.2,52.4z"/>
	<path class="st2" d="M113.2,41.1c-24.8,0.8-37.7,4.2-44.1,6.9c-0.6,0.3-1,0.9-1,1.5c0,0.9,0.7,1.7,1.7,1.8c0.2,0,0.4,0,0.7-0.1
		c5-2.1,17.3-5.8,42.9-6.7c0.9,0,1.7-0.8,1.6-1.8C114.9,41.8,114.1,41,113.2,41.1z"/>
	<path class="st2" d="M113.2,29.6c-24.8,0.8-37.7,4.2-44.1,6.9c-0.6,0.3-1.1,0.9-1.1,1.6c0,1,0.8,1.8,1.7,1.8c0.2,0,0.5,0,0.7-0.1
		c5-2.1,17.3-5.8,42.9-6.7c0.9,0,1.7-0.8,1.7-1.8C115,30.4,114.2,29.6,113.2,29.6z"/>
	<path class="st2" d="M113.2,18.2c-24.8,0.8-37.7,4.2-44.1,6.9C68.5,25.4,68,26,68,26.7c0,1,0.8,1.8,1.7,1.8c0.2,0,0.5,0,0.7-0.1
		c5-2.1,17.3-5.8,42.9-6.7c0.9,0,1.7-0.8,1.7-1.8C115,19,114.2,18.2,113.2,18.2z"/>
	<path class="st3" d="M43.8,97.3c1.3-0.1,2.4-0.9,3-2l0.4-1l0.4-0.9l1.3-3.2l2.6-6.8l0-0.1c0.4-1.1,0.6-2.2,0.6-3.4
		c0-0.8,0.1-1.5,0-2.3L51,71.9l-0.4-2.4c-0.1-0.5-0.3-1-0.4-1.5c-0.7-2.7-1.2-5.4-1.5-8.1c-0.1-0.6-0.1-1.2-0.1-1.8
		c0-0.1,0-0.3-0.1-0.4c-0.3-0.2-1.4,0.1-2.6,0.5v1V67v3.6v5.7c0,0.9-0.6,1.6-1.4,1.9c-0.2,0.1-0.4,0.1-0.6,0.1
		c-0.5,0-0.9-0.2-1.3-0.5c-0.5-0.4-0.7-0.9-0.7-1.5v-6.4v-3.6v-7.8v-3.6V47v-3.6v-1.1c0-0.9-0.7-1.7-1.7-1.7s-1.7,0.7-1.7,1.7v0.6
		v3.5v8v3.5v2.4c0,1.1-0.9,2-2,2s-2-0.9-2-2v-2.9v-2.2H28c-0.9,0.1-1.8,0.6-2.5,1.4c-0.2,0.2-0.3,0.4-0.4,0.6l-2.4,7.1l-1.2,3.4
		l-2.6,7.5c0,0.1,0,0.2-0.1,0.3c-0.3,1.1-0.4,2.3-0.4,3.5c0,0.6,0.1,1.3,0.2,1.9l1.7,6l1,3.5l0.9,3.3l0.5,1.7
		c0.3,0.8,0.8,1.4,1.5,1.7c0.3,0.2,0.7,0.3,1.1,0.3c1.1,0,2,0.9,2,2l0.1,4.5c0,0.8-0.5,1.5-1.1,1.8v8.8h17.3v-8.6
		c-1-0.1-1.8-1-1.8-2l-0.1-4.5c0-0.8,0.4-1.5,1.1-1.8C43.1,97.4,43.4,97.3,43.8,97.3C43.7,97.3,43.7,97.3,43.8,97.3z"/>
</g>
<g id="dark">
	<path class="st2" d="M55.9,76.8l-1.5-8.2c0-0.1,0-0.1,0-0.2c-1-3.4-1.7-6.9-1.9-10.5c0-1.5-0.7-2.9-2-3.6c-1.4-0.8-3.1-0.7-4.6-0.3
		V42.2c0-3.1-2.5-5.7-5.7-5.7c-3.1,0-5.7,2.5-5.7,5.7v8.9H28c-3,0.1-5.6,2-6.6,4.7l-6.2,18c-0.8,2.6-0.9,5.4-0.2,8l4,14.6
		c0.7,2.1,2.4,3.8,4.5,4.5v2.8c0,1.1,0.9,2,2,2l0,0c0.3,0,0.6-0.1,0.9-0.2c0.7-0.3,1.1-1,1.1-1.8l-0.1-4.5c0-1.1-0.9-2-2-2
		c-1.2-0.1-2.2-0.9-2.6-2l-4.1-14.5c-0.4-1.9-0.4-3.8,0.2-5.6l6.2-18c0.5-1.1,1.6-1.9,2.9-2h6.6v5.1c0,1.1,0.9,2,2,2s2-0.9,2-2v-18
		c0-0.9,0.7-1.7,1.7-1.7s1.7,0.7,1.7,1.7v34c0,1.1,0.9,2,2,2s2-0.9,2-2V58.1c1.1-0.4,2.3-0.6,2.6-0.5c0.1,0.1,0.1,0.2,0.1,0.4
		c0.2,3.8,0.9,7.7,2,11.4l1.5,8.1c0.2,1.9,0,3.9-0.6,5.7l-4.7,12c-0.6,1.2-1.7,1.9-3,2c0,0,0,0-0.1,0c-1.1,0-2,0.9-1.9,2l0.1,4.5
		c0,1,0.9,1.9,1.9,1.9H44l0,0l0,0c1.1,0,2-0.9,1.9-2l-0.1-2.8c2.1-0.7,3.8-2.2,4.7-4.3l4.7-12C56,82.2,56.2,79.5,55.9,76.8z"/>
	<path class="st2" d="M49.7,106.9c-0.2-2.6-2.4-4.7-5-4.6H23.6c-2.6,0-4.8,2-5,4.6l-2.1,21c0,0.1,0,0.1,0,0.2h2l0,0h29.3l0,0h4
		c0-0.1,0-0.1,0-0.2L49.7,106.9z"/>
</g>
</svg>
