<?xml version="1.0" encoding="utf-8"?>
<!-- Generator: Adobe Illustrator 21.1.0, SVG Export Plug-In . SVG Version: 6.00 Build 0)  -->
<svg version="1.1" id="Users" xmlns="http://www.w3.org/2000/svg" xmlns:xlink="http://www.w3.org/1999/xlink" x="0px" y="0px"
	 viewBox="0 0 128 128" style="enable-background:new 0 0 128 128;" xml:space="preserve">
<style type="text/css">
	.st0{fill:#668AAA;}
	.st1{fill:#003C71;}
</style>
<title>TEST</title>
<g id="light_1_">
	<circle class="st0" cx="101.7" cy="32.4" r="13.1"/>
	<path class="st0" d="M111.4,48.5H91.9c-1.1,0-2.1,0.1-3.1,0.3c4.3,3.6,7,9,7.1,14.9v28.4c0,3.4-2.8,6.1-6.2,6.1c0,0,0,0-0.1,0
		l0.4,10.9h23.3l1.8-49.1c1.7,1.2,2.6,3.1,2.7,5.2v23.9c-0.1,2.8,2.1,5.2,4.9,5.3c2.8,0.1,5.2-2.1,5.3-4.9c0-0.2,0-0.3,0-0.5V65.2
		C128,56,120.6,48.6,111.4,48.5z"/>
</g>
<g id="light">
	<circle class="st0" cx="26.3" cy="32.4" r="13.1"/>
	<path class="st0" d="M38.3,98.1c-3.5,0-6.2-2.8-6.2-6.1V63.6c0-5.9,2.7-11.2,6.9-14.8c-1-0.2-2-0.3-3-0.3H16.6
		C7.4,48.6,0,56,0,65.2v23.9c0.1,2.8,2.5,5,5.3,4.9c2.6-0.1,4.8-2.2,4.9-4.9V65.2c0-2,1-4,2.6-5.2l1.8,49.2H38L38.3,98.1
		C38.4,98.1,38.4,98.1,38.3,98.1z"/>
</g>
<g id="dark">
	<path class="st1" d="M74.8,45.6H53.2C43,45.6,34.8,53.9,34.8,64v26.6c0,3.1,2.5,5.7,5.7,5.7c3.1,0,5.7-2.5,5.7-5.7V64.1
		c0-2.3,1.1-4.4,2.9-5.7l2,50.8H77l2-50.8c1.9,1.3,2.9,3.5,2.9,5.7v26.6c0,3.1,2.5,5.7,5.7,5.7c3.1,0,5.7-2.5,5.7-5.7l0,0V64.1
		C93.2,53.9,85,45.6,74.8,45.6z"/>
	<circle class="st1" cx="64" cy="27.6" r="14.5"/>
</g>
</svg>
