<?xml version="1.0" encoding="utf-8"?>
<!-- Generator: Adobe Illustrator 21.1.0, SVG Export Plug-In . SVG Version: 6.00 Build 0)  -->
<svg version="1.1" id="Image" xmlns="http://www.w3.org/2000/svg" xmlns:xlink="http://www.w3.org/1999/xlink" x="0px" y="0px"
	 viewBox="0 0 128 128" style="enable-background:new 0 0 128 128;" xml:space="preserve">
<style type="text/css">
	.st0{fill:#333333;}
	.st1{fill:#858585;}
</style>
<title>Image</title>
<path id="darkest_2_" class="st0" d="M102.2,21.9h11.2c1.9,0,3.5,1.6,3.5,3.5v4.4c0,1.9-1.6,3.5-3.5,3.5h-11.2
	c-1.9,0-3.5-1.6-3.5-3.5v-4.4C98.7,23.4,100.3,21.9,102.2,21.9z"/>
<path id="darkest" class="st0" d="M110.2,83.2c2.6-4.3,4.2-9.3,4.2-14.7c0-15.5-12.6-28.1-28.1-28.1S58.2,53,58.2,68.5
	s12.6,28.1,28.1,28.1c6.2,0,11.9-2,16.5-5.4c0.6,3.1,3.3,5.4,6.6,5.4c3.7,0,6.7-3,6.7-6.7C116.2,86.5,113.6,83.6,110.2,83.2z
	 M68.4,68.5c0-9.9,8-18,18-18c0.1,0,0.1,0,0.2,0c9.8,0.1,17.8,8.1,17.8,18s-7.9,17.9-17.8,18c-0.1,0-0.1,0-0.2,0
	C76.4,86.5,68.4,78.5,68.4,68.5z"/>
<path id="darkest_1_" class="st0" d="M36.5,24.2c-0.2-2.6-2.3-4.6-5-4.6h-16c-2.6,0-4.7,2-4.9,4.6H5.3c-2.9,0-5.3,2.4-5.3,5.3v71.8
	c0,2.9,2.4,5.3,5.3,5.3h40.1V24.2H36.5z"/>
<path id="darker" class="st1" d="M122.7,24.2H45.4v82.5h77.3c2.9,0,5.3-2.4,5.3-5.3V29.5C128,26.6,125.6,24.2,122.7,24.2z
	 M49.7,38.9v-5.6c0-1.4,1.2-2.6,2.6-2.6h10c1.4,0,2.6,1.2,2.6,2.6v5.6c0,1.4-1.2,2.6-2.6,2.6h-10C50.8,41.5,49.7,40.3,49.7,38.9z
	 M109.5,96.6c-3.3,0-6-2.3-6.6-5.4c-4.6,3.4-10.4,5.4-16.5,5.4c-15.5,0-28.1-12.6-28.1-28.1s12.6-28.1,28.1-28.1
	s28.1,12.6,28.1,28.1c0,5.4-1.5,10.4-4.2,14.7c3.3,0.4,5.9,3.2,5.9,6.7C116.2,93.6,113.2,96.6,109.5,96.6z"/>
<path id="darker_1_" class="st1" d="M8,28.1h0.3c1.2,0,2.2,1,2.2,2.2v70.2c0,1.2-1,2.2-2.2,2.2H8c-1.2,0-2.2-1-2.2-2.2V30.3
	C5.7,29.1,6.7,28.1,8,28.1z"/>
</svg>
