<?xml version="1.0" encoding="utf-8"?>
<!-- Generator: Adobe Illustrator 21.1.0, SVG Export Plug-In . SVG Version: 6.00 Build 0)  -->
<svg version="1.1" id="Links" xmlns="http://www.w3.org/2000/svg" xmlns:xlink="http://www.w3.org/1999/xlink" x="0px" y="0px"
	 viewBox="0 0 128 128" style="enable-background:new 0 0 128 128;" xml:space="preserve">
<style type="text/css">
	.st0{fill:#DDB074;}
	.st1{fill:#CE8E38;}
</style>
<title>Links</title>
<g id="light">
	<path class="st0" d="M54.9,89.1H23c-6.8,0-12.3-5.5-12.3-12.3H0c0,12.7,10.3,23,23,23h37.1c1.1,0,2.2-0.1,3.3-0.3
		c-1.1-0.8-2.1-1.7-3.1-2.6C57.9,94.6,56.1,91.9,54.9,89.1z"/>
	<path class="st0" d="M60.1,53.7H51c-0.1,0-0.1,0-0.2,0H23c-12.7,0-23,10.3-23,23h10.7c0-6.8,5.5-12.3,12.3-12.3h31.1l0,0H60
		c0.7,0,1.4,0.1,2.1,0.2c6.7,1.1,11.2,7.5,10.1,14.2c-0.3,1.5-0.8,2.8-1.5,4.1c0.4,0.7,0.8,1.3,1.4,1.9c2.2,2.3,5.4,3.2,8.4,2.6
		c1-1.9,1.7-4,2.2-6.2c0.1-0.2,0.1-0.4,0.2-0.6c0.2-1.3,0.3-2.6,0.3-3.9C83.1,64,72.8,53.7,60.1,53.7z"/>
</g>
<path id="dark" class="st1" d="M121.3,35.9c-9-9-23.6-9-32.5,0L71.5,53.1c3.3,1.6,6.2,3.9,8.5,6.6l16.3-16.3
	c2.3-2.3,5.4-3.6,8.7-3.6c3.3,0,6.4,1.3,8.7,3.6c4.8,4.8,4.8,12.6,0,17.4L87.5,87.1c-4.8,4.6-12.3,4.6-17.1,0
	c-4-3.9-4.8-9.8-2.4-14.6c-1.3-2.4-3.6-4.2-6.5-4.7c-0.5-0.1-1-0.1-1.5-0.1h-1.6c-1.7,3.3-2.6,7-2.6,10.7c0,12.7,10.3,23,23,23
	c6.1,0,12-2.4,16.3-6.7l26.2-26.2C130.3,59.4,130.3,44.9,121.3,35.9z"/>
</svg>
