<?xml version="1.0" encoding="utf-8"?>
<!-- Generator: Adobe Illustrator 21.1.0, SVG Export Plug-In . SVG Version: 6.00 Build 0)  -->
<svg version="1.1" id="Notes" xmlns="http://www.w3.org/2000/svg" xmlns:xlink="http://www.w3.org/1999/xlink" x="0px" y="0px"
	 viewBox="0 0 128 128" style="enable-background:new 0 0 128 128;" xml:space="preserve">
<style type="text/css">
	.st0{fill:none;}
	.st1{fill:#CE8E38;}
	.st2{fill:#E2BB88;}
	.st3{fill:#D8A560;}
	.st4{fill:#FFFFFF;}
</style>
<title>Note</title>
<g id="dark_4_">
	<path class="st0" d="M3.9,75.3c0,0,0,0.1,0.1,0.1C4,75.4,3.9,75.4,3.9,75.3z"/>
	<path class="st0" d="M3.8,74.4c0,0.1-0.1,0.1-0.1,0.2C3.8,74.6,3.8,74.5,3.8,74.4z"/>
	<path class="st0" d="M3.8,75.1c0-0.1,0-0.1,0-0.2C3.8,74.9,3.8,75,3.8,75.1z"/>
	<path class="st1" d="M63.8,109.3L4.1,74C4,74,3.9,74.2,3.9,74.3c0,0,0,0,0-0.1C4,74.1,4,74,4.1,73.9l-0.4-0.2v3.5L63,112.3
		c0.5,0.3,1,0.3,1.5,0L123,77.7v-1.9v-1.6L63.8,109.3z M3.8,74.4c0,0.1-0.1,0.1-0.1,0.2C3.8,74.6,3.8,74.5,3.8,74.4z M3.9,75.3
		c0,0,0,0.1,0.1,0.1C4,75.4,3.9,75.4,3.9,75.3z M3.8,74.9c0,0.1,0,0.1,0,0.2C3.8,75,3.8,74.9,3.8,74.9z"/>
</g>
<path id="light_4_" class="st2" d="M4.1,73.9l59.7,35.4l59.3-35v-0.6l-3-1.8l-55.5,32.8c-0.5,0.3-1,0.3-1.5,0L7.6,71.8l-3.3,2
	C4.2,73.9,4.2,73.9,4.1,73.9z"/>
<g id="dark_3_">
	<path class="st0" d="M3.8,67C3.8,67.1,3.8,67.1,3.8,67C3.8,67.1,3.8,67.1,3.8,67z"/>
	<path class="st0" d="M3.8,67.6c0,0.1,0.1,0.2,0.1,0.3C3.9,67.8,3.9,67.7,3.8,67.6z"/>
	<path class="st0" d="M3.9,66.7c0.1-0.1,0.2-0.2,0.3-0.3C4.1,66.5,4,66.6,3.9,66.7C3.9,66.7,3.9,66.7,3.9,66.7z"/>
	<path class="st0" d="M3.8,67.5c0-0.1,0-0.1,0-0.2C3.8,67.4,3.8,67.5,3.8,67.5z"/>
	<path class="st1" d="M117.1,70.2L117.1,70.2l-53.3,31.5L10.5,70.1L9,71l1.5-0.9l-6.3-3.7c-0.1,0.1-0.2,0.2-0.3,0.3c0,0,0,0,0,0
		c0.1-0.1,0.2-0.2,0.3-0.3l-0.5-0.3v3.5l3.8,2.3l0,0L63,104.7c0.2,0.1,0.5,0.2,0.8,0.2c0.3,0,0.5-0.1,0.8-0.2L120,71.9l3-1.8v-1.8
		v-1.7L117.1,70.2z M3.8,67C3.8,67.1,3.8,67.1,3.8,67C3.8,67.1,3.8,67.1,3.8,67z M3.8,67.6c0,0.1,0.1,0.2,0.1,0.3
		C3.9,67.8,3.9,67.7,3.8,67.6z M3.8,67.3c0,0.1,0,0.1,0,0.2C3.8,67.5,3.8,67.4,3.8,67.3z"/>
</g>
<path id="light_3_" class="st2" d="M119.9,64.3l-6.3,3.8l-49,29c-0.5,0.3-1,0.3-1.5,0L14,68l-6.3-3.7l-3.4,2l-0.1,0.1l6.3,3.8l0,0
	l53.2,31.5l53.4-31.5l5.9-3.5v-0.5L119.9,64.3z"/>
<g id="dark_2_">
	<path class="st0" d="M3.8,59.5c0,0.1,0,0.1,0,0.2C3.8,59.7,3.8,59.6,3.8,59.5z"/>
	<path class="st0" d="M3.9,59.1C3.9,59.2,3.9,59.2,3.9,59.1c-0.1,0.1-0.1,0.1-0.1,0.2C3.9,59.3,3.9,59.2,3.9,59.1z"/>
	<path class="st0" d="M3.9,60.2c0-0.1-0.1-0.1-0.1-0.2C3.8,60,3.8,60.1,3.9,60.2z"/>
	<path class="st0" d="M4,59.1c0.1-0.1,0.2-0.2,0.3-0.3C4.2,58.9,4.1,59,4,59.1z"/>
	<path class="st0" d="M3.9,60.4C4,60.4,4,60.4,3.9,60.4C4,60.4,4,60.4,3.9,60.4z"/>
	<path class="st1" d="M117,62.6l-6.3,3.8l0,0L63.8,94.1L16.9,66.3l-6.3-3.8L9,63.5l-1.3,0.8L14,68l0,0l49,29
		c0.2,0.2,0.5,0.3,0.8,0.3c0.3,0,0.5-0.1,0.8-0.2l49-29l0,0l6.3-3.8l3.1-1.8v-1.7V59L117,62.6z"/>
	<path class="st1" d="M10.6,62.5l-6.3-3.8C4.2,58.9,4.1,59,4,59.1c0.1-0.1,0.2-0.2,0.3-0.3l-0.5-0.3v3.5l3.9,2.3L9,63.5L10.6,62.5z
		 M3.9,59.1c0,0.1-0.1,0.1-0.1,0.2C3.9,59.3,3.9,59.2,3.9,59.1C3.9,59.2,3.9,59.2,3.9,59.1z M3.8,59.5c0,0.1,0,0.1,0,0.2
		C3.8,59.7,3.8,59.6,3.8,59.5z M3.8,60c0,0.1,0,0.1,0.1,0.2C3.8,60.1,3.8,60,3.8,60z M3.9,60.4C4,60.4,4,60.4,3.9,60.4
		C4,60.4,4,60.4,3.9,60.4z"/>
</g>
<g id="light_2_">
	<polygon class="st2" points="10.6,62.6 16.9,66.3 20.5,64.2 14.1,60.5 	"/>
	<path class="st2" d="M119.7,56.7l-6.3,3.8l-6.3,3.8l0,0L64.3,89.6c-0.3,0.2-0.8,0.2-1.1,0L20.5,64.2l-3.5,2.1l46.8,27.8l46.9-27.7
		l6.3-3.8l6-3.5v-0.4L119.7,56.7z"/>
	<polygon class="st2" points="14.1,60.5 7.8,56.7 4.3,58.8 4.3,58.8 10.6,62.5 	"/>
</g>
<g id="dark_1_">
	<polygon class="st0" points="75.1,81.5 105.6,63.4 107.1,64.2 105.6,63.4 	"/>
	<polygon class="st0" points="63.8,88.2 63.8,88.2 21.9,63.4 	"/>
	<polygon class="st0" points="116.8,55 119,53.7 63.8,20.9 8.5,53.7 10.7,55 17,58.7 23.4,62.5 63.8,86.5 104.2,62.5 110.5,58.7 	
		"/>
	<path class="st1" d="M89,32.5c0.3,0.7,0.6,1.4,0.8,2.2l-26-15.4L5.6,53.7l3.6,2.2l-0.7,0.4C7,55.5,5.4,54.8,3.8,54
		c0.1,0.3,0.3,0.5,0.5,0.6l3.5,2.1l0,0l6.3,3.8l6.3,3.8l0,0l42.7,25.4c0.2,0.1,0.4,0.2,0.6,0.2c0.2,0,0.4-0.1,0.6-0.2l42.8-25.4
		l-1.5-0.9L75.1,81.5l30.5-18.1l1.5,0.9l6.3-3.8l6.3-3.8l3.3-1.9v-2.2L89,32.5z M63.8,88.2L21.9,63.4L63.8,88.2L63.8,88.2z
		 M104.2,62.5l-40.4,24l-40.4-24L17,58.7L10.7,55l-2.2-1.3l55.3-32.8L119,53.7l-2.2,1.3l-6.3,3.8L104.2,62.5z"/>
</g>
<g id="light_1_">
	<path class="st2" d="M64.3,23.8L116.8,55l2.2-1.3L63.8,20.9L8.5,53.7l2.2,1.3l52.5-31.2C63.5,23.6,64,23.6,64.3,23.8z"/>
	<path class="st2" d="M64.3,31.4l46.2,27.4l6.3-3.8L64.3,23.8c-0.3-0.2-0.8-0.2-1.1,0L10.7,55l6.3,3.7l46.2-27.4
		C63.5,31.1,64,31.1,64.3,31.4z"/>
	<path class="st2" d="M64.3,38.9l39.8,23.6l6.3-3.8L64.3,31.4c-0.3-0.2-0.8-0.2-1.1,0L17,58.7l6.3,3.8l39.9-23.6
		C63.5,38.7,64,38.7,64.3,38.9z"/>
	<path class="st2" d="M104.2,62.5L64.3,38.9c-0.3-0.2-0.8-0.2-1.1,0L23.4,62.5l40.4,24L104.2,62.5z"/>
</g>
<path id="light" class="st3" d="M76.3,68.9l50.2-37.7c0,0-13.7,3-41-5.2C98.8,45.5,84.9,61.6,76.3,68.9z"/>
<g id="dark">
	<path class="st0" d="M63.2,17.7l-58.9,35c-0.3,0.2-0.4,0.4-0.5,0.7c0.1-0.3,0.3-0.5,0.5-0.7L63.2,17.7c0.3-0.2,0.8-0.2,1.1,0
		l24.7,14.7L64.3,17.7C64,17.5,63.6,17.5,63.2,17.7z"/>
	<polygon class="st0" points="9.2,55.9 9.2,55.8 5.6,53.7 	"/>
	<path class="st1" d="M89.9,34.7c-0.2-0.7-0.5-1.5-0.8-2.2L64.3,17.8c-0.3-0.2-0.8-0.2-1.1,0l-58.9,35c-0.2,0.1-0.4,0.4-0.5,0.7
		c0.1-0.3,0.2-0.5,0.5-0.7l58.9-35c0.3-0.2,0.8-0.2,1.1,0l24.7,14.7C88.1,30.2,87,28,85.6,26c-7.4-2.3-14.7-5.2-21.6-8.8
		c-0.2-0.1-0.4-0.1-0.6,0L3.8,52.6v1c0,0,0,0.1,0,0.1c0,0.1,0,0.2,0,0.3c1.6,0.8,3.2,1.6,4.7,2.3l0.1,0
		c36.3,17.2,62.1,16.9,62.1,16.9l5.6-4.2C83.6,62.7,94.7,50.2,89.9,34.7z M9.2,55.9l-3.6-2.2L9.2,55.9L9.2,55.9z"/>
</g>
<g id="lightest">
	<path class="st4" d="M23.1,49.9l4.7-2.7l8.2,3l0,0l-6.7-3.8l2.7-1.6l9.5,5.5l-4.6,2.7l-8.5-3l0,0l6.8,4l-2.7,1.6L23.1,49.9z"/>
	<path class="st4" d="M48.1,46.5c-2.9,1.7-6.6,1.6-9.4-0.2c-3.2-1.8-3.2-3.8-0.3-5.5c2.9-1.7,6.6-1.6,9.5,0.2
		C51,42.9,51,44.9,48.1,46.5z M45.9,45.2c1.2-0.7-0.3-1.7-1.3-2.2s-2.7-1.5-3.9-0.8s0.5,1.7,1.4,2.2S44.7,45.9,45.9,45.2z"/>
	<path class="st4" d="M56.1,34.1l-2.8,1.6l6.7,3.8l-3.2,1.8l-6.7-3.8l-2.8,1.6l-2.8-1.6l8.7-5L56.1,34.1z"/>
	<path class="st4" d="M55.1,31.4l7.1-4.1l2.3,1.3l-4,2.3l1.3,0.8l3.9-2.2l2.3,1.3L64,33l1.3,0.7l4.1-2.4l2.3,1.3l-7.2,4.2L55.1,31.4
		z"/>
</g>
</svg>
