<?xml version="1.0" encoding="utf-8"?>
<!-- Generator: Adobe Illustrator 21.1.0, SVG Export Plug-In . SVG Version: 6.00 Build 0)  -->
<svg version="1.1" id="Outcomes" xmlns="http://www.w3.org/2000/svg" xmlns:xlink="http://www.w3.org/1999/xlink" x="0px" y="0px"
	 viewBox="0 0 132 132" style="enable-background:new 0 0 132 132;" xml:space="preserve">
<style type="text/css">
	.st0{fill:#99B1C6;}
	.st1{fill:#003C71;}
	.st2{fill:#003C71;stroke:#003C71;stroke-miterlimit:10;}
</style>
<title>Outcomes</title>
<path id="light" class="st0" d="M41.7,107.6c-2.8-4.8-4.7-10.1-5.7-15.7c-0.3-1.7-0.5-3.3-0.6-5.1c-0.1-1.1-0.1-2.2-0.1-3.3
	c0-5.5,0.9-10.8,2.7-15.8c0.6-1.7,1.3-3.4,2.1-5.1c3.7-7.8,9.4-14.4,16.5-19.1c3-2,6.2-3.7,9.7-5c5.4-2.1,11.3-3.3,17.5-3.3
	c1.5,0,2.9,0.1,4.4,0.2c0.7,0,1.3,0.1,2,0.2V2H2v107.6h40.9C42.5,108.9,42.1,108.3,41.7,107.6z M22.9,93.8h-8.7v-8.7h8.7V93.8z
	 M22.9,45.4h-8.7v-8.7h8.7V45.4z M22.9,21.2h-8.7v-8.7h8.7V21.2z"/>
<g id="dark_1_">
	<path class="st1" d="M21.9,13.6v6.7h-6.7v-6.7L21.9,13.6 M23.9,11.6H13.2v10.7h10.7V11.6L23.9,11.6z"/>
	<path class="st1" d="M21.9,37.7v6.7h-6.7v-6.7H21.9 M23.9,35.7H13.2v10.7h10.7V35.7L23.9,35.7z"/>
	<rect x="13.7" y="60.4" class="st2" width="9.7" height="9.7"/>
	<path class="st1" d="M21.9,86.1v6.7h-6.7v-6.7H21.9 M23.9,84.1H13.2v10.7h10.7V84.1L23.9,84.1z"/>
</g>
<g id="dark">
	<path class="st1" d="M29.2,38.6v5h27.3c3-2,6.2-3.7,9.7-5H29.2z"/>
	<path class="st1" d="M29.2,62.8v5.1H38c0.6-1.7,1.3-3.4,2.1-5.1H29.2z"/>
	<path class="st1" d="M29.2,86.9v5.1H36c-0.3-1.7-0.5-3.3-0.6-5.1H29.2z"/>
	<rect x="29.2" y="14.4" class="st1" width="49.7" height="5"/>
</g>
<path id="dark_2_" class="st1" d="M92,0H0v111.7h44.2c-0.9-1.3-1.8-2.6-2.6-4H4V4h84h0.1v31.5c1.4,0.1,2.7,0.3,4,0.5L92,0L92,0z"/>
<g id="dark_3_">
	<path class="st1" d="M72.7,111.7h-0.3c-1.7-0.1-3.2-1-4.1-2.5L57,89.9c-1.4-2.4-0.6-5.5,1.8-6.9c2.4-1.4,5.5-0.6,6.9,1.8l7.5,12.8
		l26.7-35.2c1.7-2.2,4.8-2.7,7.1-1s2.7,4.8,1,7.1l0,0l-31.2,41.2C75.8,110.9,74.3,111.7,72.7,111.7z"/>
	<path class="st1" d="M83.7,46.7c-20.4,0-37,16.6-37,37s16.6,37,37,37s37-16.6,37-37S104.1,46.7,83.7,46.7L83.7,46.7z M83.7,128
		c-24.5,0-44.3-19.9-44.3-44.3s19.9-44.3,44.3-44.3c24.5,0,44.3,19.9,44.3,44.3S108.1,128,83.7,128z"/>
</g>
</svg>
