<?xml version="1.0" encoding="utf-8"?>
<!-- Generator: Adobe Illustrator 21.1.0, SVG Export Plug-In . SVG Version: 6.00 Build 0)  -->
<svg version="1.1" id="Readings" xmlns="http://www.w3.org/2000/svg" xmlns:xlink="http://www.w3.org/1999/xlink" x="0px" y="0px"
	 viewBox="0 0 128 128" style="enable-background:new 0 0 128 128;" xml:space="preserve">
<style type="text/css">
	.st0{fill:#668AAA;}
	.st1{fill:#003C71;}
</style>
<title>Readings</title>
<g id="light">
	<path class="st0" d="M106.2,34.2H31.3c-5.9,0-10.7-4.1-11.9-9.6v91.6c0,5.6,3.9,10.4,9.3,11.6v-93l2.7,0.3V128h74.8
		c1.3,0,2.3-1,2.3-2.3v-93C108.1,33.6,107.3,34.2,106.2,34.2z M90.1,71.6c0,2.2-1.8,3.9-3.9,3.9H51.7c-2.2,0-3.9-1.8-3.9-3.9V57.9
		c0-2.2,1.8-3.9,3.9-3.9h34.5c2.2,0,3.9,1.8,3.9,3.9V71.6z"/>
	<path class="st0" d="M106.2,28.9c-0.5,0.1-1,0.1-1.5,0c-3.8-0.4-6.6-3.9-6.2-7.7s3.9-6.6,7.7-6.2c1.4,0,2.6-1.2,2.6-2.6
		c0-1.4-1.2-2.6-2.6-2.6H66.7V15h29.5c-2.9,4.2-2.9,9.7,0,13.9H31.3c-3.3-0.4-5.9-2.9-6.2-6.2c-0.4-3.8,2.4-7.3,6.2-7.7h12.6V9.8
		H31.3c-6.7,0-12.2,5.5-12.2,12.2c0,0.9,0.1,1.7,0.3,2.5c1.2,5.5,6.1,9.6,11.9,9.6h74.9c1,0,1.9-0.6,2.3-1.5
		c0.2-0.3,0.3-0.7,0.3-1.2C108.9,30.1,107.7,28.9,106.2,28.9z"/>
</g>
<g id="dark_3_">
	<path id="dark_2_" class="st1" d="M28.8,34.8v92.9c0.8,0.2,1.7,0.3,2.6,0.3h0.1V35.1L28.8,34.8z"/>
	<path id="dark_1_" class="st1" d="M87.2,77H50.7c-2.4,0-4.4-2-4.4-4.4V56.9c0-2.4,2-4.4,4.4-4.4h36.5c2.4,0,4.4,2,4.4,4.4v15.7
		C91.6,75,89.6,77,87.2,77z M50.7,55.5c-0.8,0-1.4,0.6-1.4,1.4l0,0v15.7c0,0.8,0.7,1.4,1.4,1.4h36.5c0.8,0,1.4-0.6,1.4-1.4l0,0V56.9
		c0-0.8-0.6-1.4-1.4-1.4l0,0H50.7z"/>
	<path id="dark" class="st1" d="M66.7,26.7H43.9c-0.8,0-1.5-0.7-1.5-1.5l0,0V5.6C42.4,2.5,44.9,0,48,0h14.6c3.1,0,5.6,2.5,5.6,5.6
		v19.6C68.2,26,67.6,26.7,66.7,26.7z M45.4,23.7h19.8V5.6C65.2,4.2,64,3,62.6,3H48c-1.4,0-2.6,1.2-2.6,2.6l0,0V23.7z"/>
</g>
</svg>
