<?xml version="1.0" encoding="utf-8"?>
<!-- Generator: Adobe Illustrator 21.1.0, SVG Export Plug-In . SVG Version: 6.00 Build 0)  -->
<svg version="1.1" id="Refelection" xmlns="http://www.w3.org/2000/svg" xmlns:xlink="http://www.w3.org/1999/xlink" x="0px"
	 y="0px" viewBox="0 0 128 128" style="enable-background:new 0 0 128 128;" xml:space="preserve">
<style type="text/css">
	.st0{fill:#003C71;}
	.st1{fill:#668AAA;}
</style>
<title>Reflection</title>
<path id="dark" class="st0" d="M41.1,103.9c-2.2,4.3-0.4,7.8,0.8,9c2.2,2.5,6,3.7,11.4,3.7c1.6,0,3.3-0.1,4.9-0.3
	c1.1,2.3,1.8,4.8,2,7.4c0.1,1.2,1.1,2.1,2.4,2.1h44.3c1.3,0,2.4-1.1,2.4-2.4c0-0.2,0-0.4-0.1-0.5l-4-17.7c-1-4.9-0.2-9.9,2.1-14.3
	c2.1-3.9,6.5-10.2,6.5-10.3c3.6-5.5,5.8-11.7,6.6-18.2c0.1-1.2,0.2-2.3,0.2-3.5c0-18.4-18.1-33.4-40.3-33.4h-0.5
	c-12.2,0.1-23.8,4.7-31.7,12.5L48,38.3l0,0c-3.8,4.1-5.3,6.9-5,9.1c0.1,0.8,0.6,1.6,1.2,2.1l0.4,0.3c-3.4,8.4-4.1,11.9-4.2,12
	c-1.2,4.9,0.6,7.4,1.2,8.2l-7.3,13c-0.8,1.3-1,2.9-0.4,4.4c1,2.5,3.8,3.4,4.4,3.6c0.7,0.2,1.5,0.3,2.2,0.4L41.1,103.9z"/>
<g id="light">
	<circle class="st1" cx="25.1" cy="34.8" r="7.8"/>
	<circle class="st1" cx="34.8" cy="48.9" r="5"/>
	<circle class="st1" cx="19.2" cy="13.1" r="10.9"/>
</g>
</svg>
