<?xml version="1.0" encoding="utf-8"?>
<!-- Generator: Adobe Illustrator 21.1.0, SVG Export Plug-In . SVG Version: 6.00 Build 0)  -->
<svg version="1.1" id="Review" xmlns="http://www.w3.org/2000/svg" xmlns:xlink="http://www.w3.org/1999/xlink" x="0px" y="0px"
	 viewBox="0 0 128 128" style="enable-background:new 0 0 128 128;" xml:space="preserve">
<style type="text/css">
	.st0{fill:#668AAA;}
	.st1{fill:#003C71;}
</style>
<title>Review</title>
<path id="light" class="st0" d="M67.7,39.4c-3.7,0-7.3,1-10.5,2.8c5,0.8,8.4,5.4,7.6,10.3c-0.8,5-5.4,8.4-10.3,7.6
	c-3.1-0.5-5.7-2.5-7-5.4C44.4,66,51,77.5,62.2,80.6S84.9,77.1,88,65.9s-3.5-22.7-14.7-25.8C71.5,39.6,69.6,39.4,67.7,39.4z"/>
<g id="dark">
	<path class="st1" d="M15.3,63c8.9-11.8,21.5-21.8,41.3-28c37.2-11.7,64.2,0.8,70.4,22.5c0.7,2.6,1.1,5.2,1.1,7.9h-13.4
		c0.1-2.1-0.1-4.2-0.7-6.2c-4.8-17-32.6-23.9-62.1-15.6C37.3,47.7,24,54.8,15.3,63"/>
	<path class="st1" d="M112.7,62.8c-8.9,11.8-21.5,21.8-41.3,28C34.3,102.5,7.2,90,1,68.3C0.3,65.7,0,63,0,60.3h13.4
		c-0.1,2.1,0.1,4.2,0.7,6.2c4.8,17,32.6,23.9,62.1,15.6C90.7,78,104,70.9,112.7,62.8"/>
</g>
</svg>
