<?xml version="1.0" encoding="utf-8"?>
<!-- Generator: Adobe Illustrator 21.1.0, SVG Export Plug-In . SVG Version: 6.00 Build 0)  -->
<svg version="1.1" id="Assignment" xmlns="http://www.w3.org/2000/svg" xmlns:xlink="http://www.w3.org/1999/xlink" x="0px" y="0px"
	 viewBox="0 0 128 128" style="enable-background:new 0 0 128 128;" xml:space="preserve">
<style type="text/css">
	.st0{fill:#D5D5EC;}
	.st1{fill:#9E9ED4;}
	.st2{fill:#7474C1;}
</style>
<title>Assign</title>
<path id="lighter" class="st0" d="M53.2,41.5c0-0.8,0.8-1.5,1.8-1.5h18.2c1,0,1.8,0.6,1.8,1.5V50l37.9,4.7l-12-18.7h-73l-4.7,7.5
	l30.1,3.8v-5.8H53.2z"/>
<g id="light">
	<path class="st1" d="M98.5,28.5h-69c-0.7,0-1.2-0.5-1.2-1.2s0.5-1.2,1.2-1.2h69c0.7,0,1.2,0.5,1.2,1.2S99.2,28.5,98.5,28.5z"/>
	<path class="st1" d="M95.5,23.4h-63c-0.7,0-1.2-0.5-1.2-1.2s0.5-1.2,1.2-1.2h63c0.7,0,1.2,0.5,1.2,1.2S96.2,23.4,95.5,23.4z"/>
	<path class="st1" d="M92.5,18.2H35.4c-0.7,0-1.2-0.5-1.2-1.2s0.5-1.2,1.2-1.2h57.1c0.7,0,1.2,0.5,1.2,1.2S93.2,18.2,92.5,18.2z"/>
	<path class="st1" d="M89.5,13H38.4c-0.7,0-1.2-0.5-1.2-1.2s0.5-1.2,1.2-1.2h51.1c0.7,0,1.2,0.5,1.2,1.2S90.2,13,89.5,13z"/>
	<path class="st1" d="M98,36.2h6.1h9.1c0.4,0,0.8-0.2,1.1-0.6c0.2-0.4,0.2-0.9,0-1.2L96.1,6.2c-0.2-0.3-0.6-0.6-1-0.6H32.9
		c-0.4,0-0.8,0.2-1,0.6L13.8,34.4c-0.2,0.4-0.3,0.8,0,1.2c0.2,0.4,0.6,0.6,1.1,0.6H24h6.1H98z M33.6,8.1h60.9L111,33.8H17L33.6,8.1z
		"/>
</g>
<path id="dark_1_" class="st2" d="M72.5,61.9V43.8c0-0.8-0.6-1.4-1.4-1.4l0,0H56.8c-0.8,0-1.4,0.6-1.4,1.4l0,0v18.1
	c0,0.8-0.6,1.4-1.3,1.4c-0.1,0-0.3,0-0.4-0.1l-8.3-2.5c-0.7-0.2-1.5,0.2-1.7,0.9c-0.1,0.4-0.1,0.8,0.2,1.2l19,28.6
	c0.4,0.6,1.3,0.8,1.9,0.4c0.2-0.1,0.3-0.2,0.4-0.4l19-28.6c0.4-0.6,0.3-1.5-0.4-1.9c-0.3-0.2-0.8-0.3-1.2-0.2l-8.3,2.5
	c-0.7,0.2-1.5-0.2-1.7-1C72.6,62.2,72.5,62,72.5,61.9z"/>
<path id="dark" class="st2" d="M127,71.7l-22.9-35.5H98l22,34.1H95.6c-2.9,0-5.2,2.4-5.2,5.2v11c0,5.6-4.5,10.2-10.2,10.2H47.9
	c-5.6,0-10.2-4.6-10.2-10.2v-11c0-2.9-2.4-5.2-5.2-5.2H8l22.1-34.1H24L0.8,72C0.3,72.7,0,73.4,0,74.3v44.8c0,2.2,1.8,4.1,4.1,4.1
	H124c2.2,0,4.1-1.8,4.1-4.1V74.4C128.1,73.4,127.6,72.4,127,71.7z M57.3,118.7h-4.8v-15.4h4.8V118.7z M75.5,118.7H71l-5.8-8.5v8.5
	h-4.5v-15.4h4.5l5.8,8.5v-8.5h4.5V118.7z"/>
</svg>
