<?xml version="1.0" encoding="utf-8"?>
<!-- Generator: Adobe Illustrator 21.1.0, SVG Export Plug-In . SVG Version: 6.00 Build 0)  -->
<svg version="1.1" id="Discussion" xmlns="http://www.w3.org/2000/svg" xmlns:xlink="http://www.w3.org/1999/xlink" x="0px" y="0px"
	 viewBox="0 0 128 128" style="enable-background:new 0 0 128 128;" xml:space="preserve">
<style type="text/css">
	.st0{fill:#668AAA;}
	.st1{fill:#003C71;}
</style>
<title>Discussion</title>
<path id="light" class="st0" d="M111,89.8c16.8-12.1,22.1-35.2,11.5-53.5c-11.2-19.4-35.9-26.1-55.4-15.1c11.5,7.9,19,21.1,19,36
	c0,14.6-7.2,27.4-18.2,35.4c10.4,5.6,22.9,6.5,34.4,2l13,17.1c0.6,1.1,2,1.5,3.1,0.9c1.1-0.6,1.5-2,0.9-3.1L111,89.8z M93.7,60.9
	c-2.3,0-4.2-1.9-4.2-4.2c0-2.3,1.9-4.2,4.2-4.2s4.2,1.9,4.2,4.2C97.9,59,96,60.9,93.7,60.9z M106.7,60.9c-2.3,0-4.2-1.9-4.2-4.2
	c0-2.3,1.9-4.2,4.2-4.2s4.2,1.9,4.2,4.2C110.9,59,109,60.9,106.7,60.9z"/>
<path id="dark" class="st1" d="M61.4,21.6c-5.5-3.2-11.4-4.9-17.3-5.4c-0.6,0-1.3-0.1-1.9-0.1c0,0,0,0-0.1,0c-0.6,0-1.2,0-1.8,0
	c-0.1,0-0.2,0-0.4,0C27.6,16.4,15.6,22.4,8,32.9C8,33,7.9,33,7.9,33.1c-0.4,0.5-0.7,1.1-1.1,1.6c0,0,0,0.1-0.1,0.1
	c-0.4,0.6-0.7,1.1-1,1.7c-0.2,0.3-0.4,0.6-0.5,1c-0.2,0.3-0.3,0.6-0.5,1s-0.3,0.7-0.5,1.1C4,40,3.8,40.4,3.7,40.8
	c-0.4,0-0.6,0.2-0.7,0.5c-0.3,0.7-0.6,1.4-0.8,2.1c0,0.1-0.1,0.3-0.1,0.4c-0.2,0.7-0.4,1.3-0.6,2c0,0.2-0.1,0.3-0.1,0.5
	c-0.4,1.6-0.7,3.2-1,4.8c0,0.1,0,0.2,0,0.3c-0.1,0.8-0.2,1.5-0.2,2.3c0,0.1,0,0.2,0,0.3C0,54.9,0,55.7,0,56.5c0,0.2,0,0.4,0,0.6
	c0,0.4,0,0.9,0,1.3c0,0.3,0,0.6,0.1,0.9c0,0.3,0,0.6,0.1,0.9c0,0.4,0.1,0.8,0.1,1.2c0,0.2,0,0.4,0.1,0.6c0.1,0.5,0.1,1,0.2,1.5
	c0,0.1,0,0.1,0,0.2c0.7,4.1,2.1,8.1,4,11.8c0,0.1,0.1,0.2,0.1,0.3c0.2,0.4,0.4,0.7,0.6,1.1c0.1,0.2,0.3,0.5,0.4,0.7
	c0.1,0.2,0.3,0.5,0.5,0.7c0.2,0.3,0.4,0.7,0.6,1c0.1,0.2,0.2,0.3,0.3,0.5c0.3,0.4,0.5,0.8,0.8,1.2c0.1,0.1,0.2,0.2,0.2,0.3
	c0.3,0.4,0.7,0.9,1,1.3c0.1,0.1,0.1,0.1,0.2,0.2c0.4,0.4,0.7,0.9,1.1,1.3l0.1,0.1c0.4,0.4,0.8,0.9,1.2,1.3c0.1,0.1,0.1,0.1,0.2,0.2
	c0.4,0.4,0.8,0.8,1.2,1.1c0.1,0.1,0.2,0.2,0.3,0.3c0.4,0.3,0.7,0.6,1.1,0.9c0.2,0.1,0.3,0.3,0.5,0.4c0.3,0.2,0.6,0.5,0.9,0.7
	c0.2,0.2,0.5,0.4,0.7,0.6c0.1,0.1,0.2,0.1,0.3,0.2l-1.6,3.8l-6.7,15.9c-0.6,1.1-0.2,2.5,0.9,3.1c1.1,0.6,2.5,0.2,3.1-0.9L23.1,98
	l2.7-3.4c0.5,0.2,1,0.4,1.6,0.6c0.1,0,0.2,0.1,0.3,0.1c0.5,0.2,1,0.3,1.5,0.5c0.2,0,0.3,0.1,0.5,0.1c0.4,0.1,0.9,0.2,1.3,0.4
	c0.2,0.1,0.5,0.1,0.7,0.2c0.4,0.1,0.7,0.2,1.1,0.2c0.5,0.1,1,0.2,1.5,0.3c0.1,0,0.3,0,0.4,0.1c0.7,0.1,1.3,0.2,2,0.3
	c0.1,0,0.2,0,0.3,0c0.6,0.1,1.1,0.1,1.7,0.1c0.2,0,0.3,0,0.5,0c0.5,0,1,0,1.5,0c0.2,0,0.4,0,0.7,0c0.4,0,0.8,0,1.2,0
	c0.3,0,0.6,0,0.9,0s0.6,0,0.9-0.1c0.4,0,0.8-0.1,1.1-0.1c0.1,0,0.2,0,0.3,0c5.2-0.6,10.3-2.2,14.9-4.8c0,0,0.1,0,0.1-0.1
	c0.5-0.3,1-0.5,1.4-0.8c0.2-0.1,0.3-0.2,0.5-0.3c0.3-0.2,0.7-0.4,1-0.7c0.5-0.4,1-0.7,1.6-1.1l0.1-0.1c0.5-0.4,1-0.7,1.4-1.1
	c0.1,0,0.1-0.1,0.2-0.1c0.4-0.4,0.9-0.7,1.3-1.1c0.1-0.1,0.2-0.2,0.3-0.3c0.4-0.3,0.7-0.7,1.1-1c0.1-0.1,0.3-0.3,0.4-0.4
	c0.3-0.3,0.6-0.6,0.9-0.9c0.2-0.2,0.4-0.4,0.6-0.6c0.2-0.2,0.4-0.5,0.6-0.7c0.3-0.3,0.5-0.6,0.7-0.9c0.1-0.2,0.2-0.3,0.4-0.5
	c0.3-0.4,0.6-0.8,0.9-1.2c0-0.1,0.1-0.1,0.1-0.2c0.7-1,1.4-2,2-3.1c2.1-3.6,3.6-7.5,4.5-11.4c0,0,0,0,0-0.1c0.1-0.6,0.3-1.2,0.4-1.8
	c0-0.1,0-0.2,0-0.2c0.1-0.5,0.2-1.1,0.2-1.6c0-0.1,0-0.3,0.1-0.4c0.1-0.5,0.1-1,0.2-1.5c0-0.2,0-0.3,0-0.5c0-0.5,0.1-1,0.1-1.5
	c0-0.2,0-0.3,0-0.5c0-0.5,0-1.1,0-1.6c0-0.1,0-0.2,0-0.3C81.4,42.2,74.2,29,61.4,21.6z M21.7,60.9c-2.3,0-4.2-1.9-4.2-4.2
	c0-2.3,1.9-4.2,4.2-4.2s4.2,1.9,4.2,4.2C25.9,59,24,60.9,21.7,60.9z M34.7,60.9c-2.3,0-4.2-1.9-4.2-4.2c0-2.3,1.9-4.2,4.2-4.2
	s4.2,1.9,4.2,4.2C38.9,59,37,60.9,34.7,60.9z M47.7,60.9c-2.3,0-4.2-1.9-4.2-4.2c0-2.3,1.9-4.2,4.2-4.2s4.2,1.9,4.2,4.2
	C51.9,59,50,60.9,47.7,60.9z M60.2,61c-2.3,0-4.2-1.9-4.2-4.2c0-2.3,1.9-4.2,4.2-4.2s4.2,1.9,4.2,4.2C64.4,59.1,62.5,61,60.2,61z"/>
</svg>
