<?xml version="1.0" encoding="utf-8"?>
<!-- Generator: Adobe Illustrator 21.1.0, SVG Export Plug-In . SVG Version: 6.00 Build 0)  -->
<svg version="1.1" id="Key_Points" xmlns="http://www.w3.org/2000/svg" xmlns:xlink="http://www.w3.org/1999/xlink" x="0px" y="0px"
	 viewBox="0 0 128 128" style="enable-background:new 0 0 128 128;" xml:space="preserve">
<style type="text/css">
	.st0{fill:#CE8E38;}
	.st1{fill:#E2BB88;}
</style>
<title>Key_points</title>
<path id="dark" class="st0" d="M127.1,111.8L75.7,60.3c-0.5-0.5-0.5-1.3,0-1.8l0.4-0.4c1.6-1.6,1.6-4.2,0-5.7l-3.6-3.6
	c-1.6-1.6-1.6-4.2,0-5.7l4.3-4.3c1.6-1.6,1.6-4.2,0-5.7L47.1,3.4c-1.6-1.6-4.2-1.6-5.7,0l-3,3c-1.2,1.2-3.1,1.5-4.7,0.8l-6-3
	C26.1,3.4,24.2,3.8,23,5L2.8,25.1c-1.2,1.2-1.6,3.1-0.8,4.7l3,6.1c0.8,1.6,0.5,3.4-0.8,4.7l-3,3c-1.6,1.6-1.6,4.2,0,5.7L30.9,79
	c1.6,1.6,4.2,1.6,5.7,0l4.3-4.3c1.6-1.6,4.2-1.6,5.7,0l3.6,3.6c1.6,1.6,4.2,1.6,5.7,0l0.4-0.4c0.5-0.5,1.3-0.5,1.8,0l6,6
	c0.6,0.6,1.5,0.9,2.4,0.8l1.1-0.1c0.6-0.1,1.2,0.1,1.7,0.6l28,28c0.6,0.6,1.4,0.9,2.2,0.9l7.3-0.4c0.8,0,1.6,0.3,2.2,0.9l2.8,2.8
	c0.5,0.5,0.8,1.1,0.8,1.7l0.5,4.2c0.2,1.6,1.7,2.7,3.3,2.6l8.5-1.1c1.4-0.2,2.5-1.4,2.6-2.8l0.3-7.9
	C128,113.1,127.7,112.3,127.1,111.8z M32.1,22.9L20.7,34.3c-2.4,2.4-6.3,2.4-8.7,0c-2.4-2.4-2.4-6.3,0-8.7l0,0l11.4-11.4
	c2.4-2.4,6.3-2.4,8.7,0C34.5,16.6,34.5,20.5,32.1,22.9L32.1,22.9L32.1,22.9z"/>
<path id="light" class="st1" d="M125.6,121.5l0.1-3.3c0-0.2-0.1-0.4-0.2-0.5l-60-60c-0.2-0.2-0.5-0.4-0.8-0.5l-5.5-1.7
	c-0.2-0.1-0.4,0.1-0.5,0.3c0,0.1,0,0.2,0,0.2l1.7,5.5c0.1,0.3,0.3,0.6,0.5,0.8l60.3,60.3c0.2,0.2,0.4,0.2,0.6,0.2l2.9-0.4
	C125.2,122.5,125.6,122.1,125.6,121.5z"/>
</svg>
