<?xml version="1.0" encoding="utf-8"?>
<!-- Generator: Adobe Illustrator 21.1.0, SVG Export Plug-In . SVG Version: 6.00 Build 0)  -->
<svg version="1.1" id="Quiz" xmlns="http://www.w3.org/2000/svg" xmlns:xlink="http://www.w3.org/1999/xlink" x="0px" y="0px"
	 viewBox="0 0 128 128" style="enable-background:new 0 0 128 128;" xml:space="preserve">
<style type="text/css">
	.st0{fill:#7474C1;}
	.st1{fill:#9E9ED4;}
</style>
<title>Quiz</title>
<g id="dark">
	<path class="st0" d="M84.1,96.2c-24.3,0-43.9-19.7-43.9-43.9c-0.1-24.3,19.6-44,43.9-44C108.3,8.3,128,28,128,52.2
		C128,76.5,108.3,96.2,84.1,96.2z M84.1,15.6c-20.2,0-36.7,16.4-36.7,36.7S63.8,89,84.1,89s36.7-16.4,36.7-36.7
		C120.7,32,104.3,15.6,84.1,15.6L84.1,15.6z"/>
	<path class="st0" d="M68.7,37.5c0.7-1.9,1.9-3.7,3.3-5.2s3.1-2.7,5-3.5c2.1-0.9,4.4-1.3,6.7-1.2c2.7-0.1,5.4,0.4,7.9,1.3
		c1.9,0.7,3.7,1.8,5.1,3.2c1.2,1.2,2.2,2.6,2.8,4.2c0.5,1.3,0.8,2.8,0.8,4.2c0.1,1.8-0.2,3.6-0.8,5.3c-0.5,1.3-1.2,2.5-2.1,3.5
		c-0.8,1-1.7,1.8-2.8,2.5c-1,0.7-2,1.4-2.8,2.1c-0.9,0.7-1.7,1.5-2.4,2.4c-0.7,1-1.2,2.1-1.3,3.3v2.5h-9v-3c0.1-3,1.2-5.9,3.2-8.2
		c0.8-0.9,1.6-1.7,2.6-2.4c0.9-0.7,1.7-1.3,2.5-2c0.7-0.6,1.3-1.4,1.8-2.2c0.5-0.9,0.7-2,0.6-3c0.1-1.7-0.4-3.3-1.5-4.6
		c-1.1-1-2.7-1.6-4.2-1.5c-1.1,0-2.2,0.2-3.1,0.7c-0.8,0.4-1.6,1.1-2.2,1.8c-0.6,0.8-1,1.8-1.2,2.8c-0.3,1.1-0.4,2.2-0.4,3.4h-9.9
		C67.4,41.9,67.9,39.6,68.7,37.5z M88.8,66.3v10.3H78.2V66.3H88.8z"/>
</g>
<g id="light">
	<polygon class="st1" points="21,47.9 24.8,47.9 22.9,41.7 	"/>
	<path class="st1" d="M83.9,99.7c-26.2,0-47.5-21.3-47.5-47.5c0-10.5,3.4-20.2,9.2-28H14.8C6.6,24.2,0,30.8,0,39v65.9
		c0,8.2,6.6,14.8,14.8,14.8h65.9c8.2,0,14.8-6.6,14.8-14.8v-6.6C91.8,99.2,87.9,99.7,83.9,99.7z M29.7,104c-0.6,0.9-1.5,1.6-2.5,2
		c-1.2,0.5-2.5,0.7-3.8,0.7c-1.6,0.1-3.1-0.2-4.6-0.8c-1.3-0.6-2.3-1.6-3.1-2.8c-0.9-1.6-1.4-3.4-1.3-5.2c-0.2-2.4,0.7-4.7,2.3-6.5
		c1.7-1.6,4-2.4,6.4-2.3c1.8-0.1,3.6,0.4,5.1,1.3c1.3,1,2.3,2.4,2.8,4l-4.7,1c-0.1-0.4-0.3-0.8-0.5-1.2c-0.3-0.4-0.7-0.7-1.1-0.9
		c-1.5-0.7-3.3-0.2-4.2,1.1c-0.6,1-0.8,2.2-0.7,3.4c0,1.9,0.3,3.2,0.9,3.9c0.6,0.7,1.5,1.1,2.4,1.1c0.9,0.1,1.7-0.3,2.3-0.8
		c0.7-0.9,1.1-1.8,1.2-2.7l4.6,1.4C31,101.9,30.5,103,29.7,104z M29.9,72.8c0.6,0.8,0.9,1.7,0.9,2.7c0,0.8-0.2,1.7-0.6,2.4
		c-0.4,0.7-1,1.3-1.7,1.7c-0.6,0.3-1.3,0.5-2,0.6c-0.8,0.1-1.6,0.2-2.4,0.2H15V63.3h9.9c1.4-0.1,2.7,0.3,3.8,1.2
		c0.9,0.8,1.3,1.9,1.3,3c0,1-0.3,1.9-1,2.6c-0.5,0.5-1.1,0.9-1.9,1.1C28.2,71.4,29.1,71.9,29.9,72.8z M26.7,54.4l-0.8-2.8h-6
		L19,54.4h-5.4L20,37.3h5.8l6.4,17.1H26.7z"/>
	<path class="st1" d="M25.6,74.9c0-0.5-0.2-0.9-0.6-1.2c-0.6-0.4-1.3-0.5-2-0.5h-2.7v3.5h0.1h2.7c0.7,0.1,1.4-0.1,1.9-0.5
		C25.4,75.9,25.6,75.4,25.6,74.9z"/>
	<path class="st1" d="M24.4,69.6c0.3-0.3,0.5-0.8,0.5-1.2c0-0.4-0.2-0.9-0.5-1.2c-0.5-0.3-1.1-0.5-1.7-0.4h-2.3V70h2.3
		C23.3,70.1,23.9,69.9,24.4,69.6z"/>
</g>
</svg>
