<?xml version="1.0" encoding="utf-8"?>
<!-- Generator: Adobe Illustrator 21.1.0, SVG Export Plug-In . SVG Version: 6.00 Build 0)  -->
<svg version="1.1" id="Layer_1" xmlns="http://www.w3.org/2000/svg" xmlns:xlink="http://www.w3.org/1999/xlink" x="0px" y="0px"
	 viewBox="0 0 128 128" style="enable-background:new 0 0 128 128;" xml:space="preserve">
<style type="text/css">
	.st0{fill:#D9A764;}
	.st1{fill:#CE8E38;}
</style>
<g id="Quote">
	<title>Quote</title>
	<path id="light" class="st0" d="M111,87.6c16.8-12.1,22.1-35.2,11.5-53.5c-11.2-19.5-36.2-26.2-55.7-15c-0.5,0.3-1,0.6-1.5,0.9
		c7.1,4.8,12.6,11.6,15.7,19.6h7.1c0.5,0,0.9,0.4,0.9,0.9h0.1V47c0.1,4-0.4,8-1.7,11.8c-1.1,2.7-2.9,5.2-5.2,7c0,0,0,0.1,0,0.1
		c-2.7,9.4-8.8,17.5-16.9,22.9c10.8,6.9,24.5,8.4,37,3.5l13,17.1c0.6,1.1,2,1.5,3.1,0.9c1.1-0.6,1.5-2,0.9-3.1L111,87.6z
		 M108.2,58.8c-1.1,2.9-3.1,5.4-5.6,7.3c-1.6,1.2-3.4,2.2-5.3,3c0,0-0.1,0-0.2,0c-0.5,0-0.9-0.4-0.9-0.9v-1.6c0-0.3,0.1-0.6,0.3-0.8
		c2.3-1.6,3.8-4,4.2-6.8l0.4-2.6h-4c-0.5,0-0.9-0.4-0.9-0.9v-15c0-0.5,0.4-0.9,0.9-0.9h11.8c0.5,0,0.9,0.4,0.9,0.9v6.6
		C109.9,51.1,109.4,55.1,108.2,58.8z"/>
	<path id="dark" class="st1" d="M61.2,19.1c-19.5-11.2-44.5-4.5-55.7,15C-5.1,52.4,0.2,75.5,17,87.6L16.4,89l-7.6,18.2
		c-0.6,1.1-0.2,2.5,0.9,3.1c1.1,0.6,2.5,0.2,3.1-0.9l12.2-16l0.8-1.1c18.5,7.4,40.1,0.3,50.3-17.5C87.4,55.3,80.7,30.4,61.2,19.1z
		 M35.4,40.1c0,0.3-0.1,0.6-0.4,0.8c-2.3,1.6-3.8,4.1-4.2,6.8l-0.4,2.6h4c0.5,0,0.9,0.4,0.9,0.9v14.9c0,0.5-0.4,0.9-0.9,0.9
		l-11.8,0.1c-0.5,0-0.9-0.4-0.9-0.9v-6.6c-0.1-4,0.4-8,1.7-11.8c1.1-2.9,3.1-5.5,5.6-7.3c1.6-1.2,3.4-2.2,5.3-3c0.1,0,0.2,0,0.2,0
		c0.5,0,0.9,0.5,0.9,0.9V40.1z M56.1,40.1c0,0.3-0.1,0.6-0.3,0.8c-2.3,1.6-3.8,4.1-4.2,6.8l-0.4,2.6h4c0.5,0,0.9,0.4,0.9,0.9v14.9
		c0,0.5-0.4,0.9-0.9,0.9l-11.8,0.1c-0.5,0-0.9-0.4-0.9-0.9v-6.6c-0.1-4,0.4-8,1.7-11.8c1.1-2.9,3-5.5,5.5-7.3c1.6-1.2,3.4-2.3,5.3-3
		c0.1,0,0.2,0,0.2,0c0.5,0,0.9,0.5,0.9,0.9V40.1z"/>
</g>
<g id="Layer_2">
</g>
</svg>
