<?xml version="1.0" encoding="utf-8"?>
<!-- Generator: Adobe Illustrator 21.1.0, SVG Export Plug-In . SVG Version: 6.00 Build 0)  -->
<svg version="1.1" id="Warning" xmlns="http://www.w3.org/2000/svg" xmlns:xlink="http://www.w3.org/1999/xlink" x="0px" y="0px"
	 viewBox="0 0 128 128" style="enable-background:new 0 0 128 128;" xml:space="preserve">
<style type="text/css">
	.st0{fill:#E2BB88;}
	.st1{fill:#CE8E38;}
</style>
<title>Warning</title>
<path id="light" class="st0" d="M64,117.5c-2.9,0-5.6-1.5-7-4.1L4.6,22.7c-2.2-3.9-0.9-8.9,3-11.1c1.2-0.7,2.6-1.1,4-1.1h104.7
	c4.5,0,8.1,3.7,8.1,8.2c0,1.4-0.4,2.8-1.1,4L71,113.4C69.6,115.9,66.9,117.5,64,117.5z"/>
<path id="dark_1_" class="st1" d="M116.3,14c2.6,0,4.6,2.1,4.6,4.6c0,0.8-0.2,1.6-0.6,2.3L68,111.7c-1.3,2.2-4.1,3-6.3,1.7
	c-0.7-0.4-1.3-1-1.7-1.7L7.6,21c-1.3-2.2-0.5-5,1.7-6.3c0.7-0.4,1.5-0.6,2.3-0.6L116.3,14 M116.3,7.1H11.6C5.2,7.1,0,12.3,0,18.7
	c0,2,0.5,4,1.5,5.7l52.3,90.7c2,3.6,5.9,5.9,10.1,5.8l0,0c4.2,0,8-2.2,10.1-5.8l52.3-90.7c3.2-5.5,1.4-12.7-4.2-15.9
	C120.5,7.5,118.4,7,116.3,7.1L116.3,7.1z"/>
<path id="dark" class="st1" d="M59.7,70.3l-3.2-32.9c0-0.1,0-0.3,0-0.4V24.4c0-2.4,2-4.3,4.4-4.4h6.4c2.4,0,4.4,2,4.4,4.4v0v12.5
	c0,0.1,0,0.3,0,0.4l-3.2,32.9c-0.2,2.2-2.1,4-4.4,3.9l0,0C61.8,74.2,59.9,72.5,59.7,70.3z M57,88.7v-5.3c0-2.4,1.9-4.4,4.3-4.4
	c0,0,0,0,0.1,0h5.3c2.4,0,4.4,2,4.3,4.4c0,0,0,0,0,0v5.3c0,2.4-2,4.4-4.4,4.4c0,0,0,0,0,0h-5.2C59,93.1,57,91.1,57,88.7
	C57,88.7,57,88.7,57,88.7z"/>
</svg>
