<?xml version="1.0" encoding="utf-8"?>
<!-- Generator: Adobe Illustrator 21.1.0, SVG Export Plug-In . SVG Version: 6.00 Build 0)  -->
<svg version="1.1" id="assignment" xmlns="http://www.w3.org/2000/svg" xmlns:xlink="http://www.w3.org/1999/xlink" x="0px" y="0px"
	 viewBox="0 0 128 128" style="enable-background:new 0 0 128 128;" xml:space="preserve">
<style type="text/css">
	.st0{fill:#66C8EC;}
	.st1{fill:#00A3E0;}
	.st2{fill:#0082B3;}
</style>
<g id="box">
	<path id="light" class="st0" d="M52.9,47.3l0.1-3.7c0-1.2,1.3-3.4,3.1-3.5h15.8c1.2,0,2.9,1.8,3,3.2L74.8,50l34.9,4.3L97.9,36H30.2
		l-5,7.8L52.9,47.3z"/>
	<path id="dark" class="st1" d="M127.2,71.9l-23.1-35.7H98l11.7,18.1l10.3,16H95.6c-2.9,0-5.2,2.4-5.2,5.2v11
		c0,5.6-4.5,10.2-10.2,10.2H47.9c-5.6,0-10.2-4.6-10.2-10.2v-11c0-2.9-2.4-5.2-5.2-5.2H8l17.2-26.5l4.9-7.6h-6.2L0.8,71.9
		C0.3,72.6,0,73.4,0,74.4v44.8c0,2.2,1.8,4.1,4.1,4.1H124c2.2,0,4.1-1.8,4.1-4.1V74.4C128,73.4,127.7,72.6,127.2,71.9z M57.3,118.8
		h-4.8v-15.4h4.8V118.8z M75.5,118.8H71l-5.8-8.5v8.5h-4.5v-15.4h4.5l5.8,8.5v-8.5h4.5V118.8z"/>
</g>
<path id="arrow" class="st1" d="M72.5,61.9V43.8c0-0.8-0.6-1.4-1.4-1.4l0,0H56.8c-0.8,0-1.4,0.6-1.4,1.4l0,0v18.1
	c0,0.8-0.6,1.4-1.3,1.4c-0.1,0-0.3,0-0.4-0.1l-8.3-2.5c-0.7-0.2-1.5,0.2-1.7,0.9c-0.1,0.4-0.1,0.8,0.2,1.2l19,28.6
	c0.4,0.6,1.3,0.8,1.9,0.4c0.2-0.1,0.3-0.2,0.4-0.4l19-28.6c0.4-0.6,0.3-1.5-0.4-1.9c-0.3-0.2-0.8-0.3-1.2-0.2l-8.3,2.5
	c-0.7,0.2-1.5-0.2-1.7-1C72.6,62.2,72.5,62,72.5,61.9z"/>
<g id="paper">
	<path id="dark_5_" class="st2" d="M98.5,28.5h-69c-0.7,0-1.2-0.6-1.2-1.2s0.6-1.2,1.2-1.2h69c0.7,0,1.2,0.6,1.2,1.2
		S99.2,28.5,98.5,28.5z"/>
	<path id="dark_4_" class="st2" d="M95.5,23.5h-63c-0.7,0-1.2-0.6-1.2-1.2s0.6-1.2,1.2-1.2h63c0.7,0,1.2,0.6,1.2,1.2
		S96.2,23.5,95.5,23.5z"/>
	<path id="dark_3_" class="st2" d="M92.5,18.2H35.4c-0.7,0-1.2-0.6-1.2-1.2s0.6-1.2,1.2-1.2h57.1c0.7,0,1.2,0.6,1.2,1.2
		S93.2,18.2,92.5,18.2z"/>
	<path id="dark_2_" class="st2" d="M89.5,13H38.4c-0.7,0-1.2-0.6-1.2-1.2s0.6-1.2,1.2-1.2h51.1c0.7,0,1.2,0.6,1.2,1.2
		S90.2,13,89.5,13z"/>
	<path id="dark_1_" class="st2" d="M98,36.2h6.1h9.1c0.5,0,0.9-0.2,1.1-0.6c0.3-0.4,0.2-0.9,0-1.3L96.2,6.2
		c-0.3-0.4-0.7-0.6-1.1-0.6H32.9c-0.5,0-0.9,0.2-1.1,0.6l-18.1,28c-0.2,0.4-0.2,0.9,0,1.3c0.2,0.5,0.6,0.7,1.1,0.7h9.1h6.2H98z
		 M33.6,8.1h60.8l16.5,25.7H17.1L33.6,8.1z"/>
</g>
</svg>
