<?xml version="1.0" encoding="utf-8"?>
<!-- Generator: Adobe Illustrator 21.1.0, SVG Export Plug-In . SVG Version: 6.00 Build 0)  -->
<svg version="1.1" id="audio" xmlns="http://www.w3.org/2000/svg" xmlns:xlink="http://www.w3.org/1999/xlink" x="0px" y="0px"
	 viewBox="0 0 128 128" style="enable-background:new 0 0 128 128;" xml:space="preserve">
<style type="text/css">
	.st0{fill:#383734;}
	.st1{fill:#979797;}
	.st2{fill:#CBCBCB;}
</style>
<g id="horn">
	<path id="darkest" class="st0" d="M56.1,66.6c0-9.8-4.6-17.8-10.3-17.8c-0.8,0-1.5,0.1-2.2,0.4c-1.7,4.8-2.9,10.6-2.9,16.6
		c0,6.8,0.9,13,3,18.2c0.6,0.2,1.5,0.3,2.1,0.3C51.5,84.3,56.1,76.3,56.1,66.6z"/>
	<path id="dark_3_" class="st1" d="M4.9,66.3c0-8.3,2-15.3,5.2-20.2C4.2,47.3,0,55.9,0,66.5c0,10.8,5.3,19.7,11.4,20.6
		C7.6,82.1,4.9,74.8,4.9,66.3z"/>
	<path id="dark_2_" class="st1" d="M27.9,86.3l-0.3-0.2c-4.4-3.3-7.4-10.8-7.4-19.6s3.1-16.3,7.4-19.6l0.2-0.1l7.2-5.2
		c-1.3-0.6-2.6-1-4-1c-8.2,0-14.9,11.6-14.9,25.8c0,14.3,6.7,25.8,14.9,25.8c1.4,0,2.7-0.3,4-0.9L27.9,86.3z"/>
	<path id="dark_1_" class="st1" d="M59.2,98.5c-10.2,0-18.5-14.3-18.5-32s8.3-32,18.5-32s18.5,14.3,18.5,32S69.4,98.5,59.2,98.5z
		 M82.5,66.6c0-21.6-10.8-39.8-23.2-39.8S36.1,44.9,36.1,66.5s10.6,39.9,23.1,39.9S82.5,88.2,82.5,66.6z"/>
	<path id="light_1_" class="st2" d="M16.1,66.3c0-14.2,6.9-25.4,14.8-25.7l-0.1-0.1l-11,0.1c-8.8,0-14.9,11-14.9,25.2
		s6.6,25.8,14.9,25.8H28C21.2,89.3,16.1,78.8,16.1,66.3z"/>
	<path id="light_2_" class="st2" d="M45.8,84.3c-0.6,0-1.5-0.1-2.1-0.3c3.3,8.7,9,14.5,15.5,14.5c10.2,0,18.5-14.3,18.5-32
		s-8.3-32-18.5-32c-6.5,0-12.3,5.8-15.6,14.7c0.7-0.3,1.4-0.4,2.2-0.4c1.8,0,3.4,0.8,4.9,2.1l0,0c3.3,3,5.5,8.9,5.5,15.7
		c-0.1,6.8-2.3,12.7-5.5,15.6l0,0C49.2,83.5,47.6,84.3,45.8,84.3z"/>
	<path id="light" class="st2" d="M36.1,66.5c0-14.1,4.5-26.7,11.1-33.8L27.8,46.8l-0.2,0.1c-4.4,3.3-7.4,10.8-7.4,19.6
		s3.1,16.3,7.4,19.6l0.3,0.2l19.2,13.9C40.6,93.1,36.1,80.5,36.1,66.5z"/>
</g>
<g id="wave">
	<path id="dark_5_" class="st1" d="M101.6,66.9c0-13.7-2.8-25.8-7.3-34.6c-1.3-2.5-2.8-4.8-4.6-6.9l-5.2,2.4
		c2.4,2.6,4.3,5.5,5.7,8.7c3.6,7.9,5.9,18.7,5.9,30.3s-2.3,22.5-5.9,30.3c-1.3,2.9-2.9,5.5-4.9,7.9l5.1,2.4c1.5-1.9,2.8-3.9,3.9-6.1
		C98.8,92.8,101.6,80.6,101.6,66.9z"/>
	<path id="dark_4_" class="st1" d="M114.8,66.8c0-15.2-2.7-28.9-7.1-39.1c-1.3-3-2.8-5.8-4.7-8.4l-5.3,2.5l0.1,0.1
		c1.7,2.2,3.2,4.6,4.3,7.1c0.6,1.2,1.1,2.5,1.6,3.9c3.4,8.9,5.6,20.8,5.6,34s-2.2,25.2-5.6,34c-0.5,1.3-1.1,2.6-1.7,3.9
		c-1.1,2.3-2.4,4.5-3.9,6.5l5.3,2.5c1.7-2.4,3.1-5,4.2-7.8C112.1,95.7,114.8,81.9,114.8,66.8z"/>
	<path id="dark" class="st1" d="M128,66.6c0-16.6-2.6-32.1-7-43.6c-1.3-3.5-2.9-6.9-4.9-10l-5.3,2.4c0.2,0.3,0.4,0.6,0.6,0.9
		c1.7,2.6,3,5.3,4.1,8.2c0.5,1.4,1.1,2.8,1.6,4.4c3.2,9.9,5.2,22.9,5.2,37.7s-2.1,27.8-5.2,37.7c-0.5,1.5-1,3-1.6,4.4
		c-1.1,2.9-2.5,5.6-4.1,8.2l-0.3,0.4l5.2,2.4c1.8-3,3.4-6.2,4.6-9.5C125.4,98.7,128,83.3,128,66.6z"/>
</g>
</svg>
