<?xml version="1.0" encoding="utf-8"?>
<!-- Generator: Adobe Illustrator 21.1.0, SVG Export Plug-In . SVG Version: 6.00 Build 0)  -->
<svg version="1.1" id="case" xmlns="http://www.w3.org/2000/svg" xmlns:xlink="http://www.w3.org/1999/xlink" x="0px" y="0px"
	 viewBox="0 0 128 128" style="enable-background:new 0 0 128 128;" xml:space="preserve">
<style type="text/css">
	.st0{fill:#003C71;}
	.st1{fill:#668AAA;}
</style>
<path id="belt" class="st0" d="M128,54.7L73.2,74.9v-9.1c0-2.1-1.7-3.8-3.9-3.8H58.4c-2.1,0-3.6,1.7-3.6,3.8v9.3L0,53.8v7.8
	l54.6,21.3v11.6c0,2.1,1.7,3.8,3.9,3.8h10.9c2.1,0,3.9-1.7,3.9-3.8V82.8L128,62.6V54.7z M67.8,93.2h-8v-7.9h8V93.2z"/>
<path id="handle" class="st0" d="M49,25.6v-2.8c0-1.9-1.6-3.5-3.5-3.5h-1.7l1-5.5c0.1-0.7,0.7-1.2,1.4-1.2h35.5
	c0.7,0,1.3,0.5,1.4,1.2l1,5.5h-1.6c-1.9,0-3.5,1.6-3.5,3.5v2.8h16.4v-2.8c0-1.9-1.6-3.5-3.5-3.5h-2.3l-1.1-6.5C88,9.5,85.1,7,81.7,7
	H46.2c-3.4,0-6.3,2.5-6.8,5.8l-1.1,6.5h-2.2c-1.9,0-3.5,1.6-3.5,3.5v2.8C32.6,25.6,49,25.6,49,25.6z"/>
<path id="top" class="st1" d="M116.4,25.6H11.6C5.2,25.6,0,30.8,0,37.2v16.6l54.8,21.3v-9.3c0-2.1,1.7-3.8,3.8-3.8h10.7
	c2.1,0,3.8,1.7,3.8,3.8V75L128,54.7V37.2C128,30.8,122.8,25.6,116.4,25.6z"/>
<path id="bottom" class="st1" d="M73.3,94.5c0,2.1-1.8,3.8-3.9,3.8H58.5c-2.2,0-3.9-1.7-3.9-3.8V82.9L0,61.6v45
	c0,6.4,5.2,11.5,11.6,11.6h104.8c6.4,0,11.6-5.2,11.6-11.6v-44L73.3,82.8V94.5z"/>
</svg>
