<?xml version="1.0" encoding="utf-8"?>
<!-- Generator: Adobe Illustrator 21.1.0, SVG Export Plug-In . SVG Version: 6.00 Build 0)  -->
<svg version="1.1" id="definition" xmlns="http://www.w3.org/2000/svg" xmlns:xlink="http://www.w3.org/1999/xlink" x="0px" y="0px"
	 viewBox="0 0 128 128" style="enable-background:new 0 0 128 128;" xml:space="preserve">
<style type="text/css">
	.st0{fill:#49C5B1;}
	.st1{fill:#2C766A;}
</style>
<g id="book">
	<g id="light_1_">
		<path class="st0" d="M119,87.9V8.3H71.4c-2.7,0-5,1.9-5.5,4.4c0.1,0.4,0.1,0.8,0.1,1.2v75.7c1.6-1.1,3.4-1.7,5.4-1.7H119z
			 M72.7,19.6c1.7-2.3,4.3-3.6,7.2-3.6h31.8c0.8,0,1.5,0.7,1.5,1.5s-0.7,1.5-1.5,1.5H79.9c-1.9,0-3.7,0.9-4.8,2.4
			c-0.3,0.4-0.7,0.6-1.2,0.6c-0.3,0-0.6-0.1-0.9-0.3C72.3,21.2,72.2,20.3,72.7,19.6z M72.7,29.6c1.7-2.3,4.3-3.6,7.2-3.6h31.8
			c0.8,0,1.5,0.7,1.5,1.5s-0.7,1.5-1.5,1.5H79.9c-1.9,0-3.7,0.9-4.8,2.4c-0.3,0.4-0.7,0.6-1.2,0.6c-0.3,0-0.6-0.1-0.9-0.3
			C72.3,31.2,72.2,30.3,72.7,29.6z M72.7,39.6c1.7-2.3,4.3-3.6,7.2-3.6h31.8c0.8,0,1.5,0.7,1.5,1.5s-0.7,1.5-1.5,1.5H79.9
			c-1.9,0-3.7,0.9-4.8,2.4c-0.3,0.4-0.7,0.6-1.2,0.6c-0.3,0-0.6-0.1-0.9-0.3C72.3,41.2,72.2,40.3,72.7,39.6z M72.7,49.6
			c1.7-2.3,4.3-3.6,7.2-3.6h31.8c0.8,0,1.5,0.7,1.5,1.5s-0.7,1.5-1.5,1.5H79.9c-1.9,0-3.7,0.9-4.8,2.4c-0.3,0.4-0.7,0.6-1.2,0.6
			c-0.3,0-0.6-0.1-0.9-0.3C72.3,51.2,72.2,50.3,72.7,49.6z M72.7,59.6c1.7-2.3,4.3-3.6,7.2-3.6h31.8c0.8,0,1.5,0.7,1.5,1.5
			s-0.7,1.5-1.5,1.5H79.9c-1.9,0-3.7,0.9-4.8,2.4c-0.3,0.4-0.7,0.6-1.2,0.6c-0.3,0-0.6-0.1-0.9-0.3C72.3,61.2,72.2,60.3,72.7,59.6z
			 M72.7,69.6c1.7-2.3,4.3-3.6,7.2-3.6h31.8c0.8,0,1.5,0.7,1.5,1.5s-0.7,1.5-1.5,1.5H79.9c-1.9,0-3.7,0.9-4.8,2.4
			c-0.3,0.4-0.7,0.6-1.2,0.6c-0.3,0-0.6-0.1-0.9-0.3C72.3,71.2,72.2,70.3,72.7,69.6z M72.7,79.7c1.7-2.3,4.3-3.6,7.2-3.6h31.8
			c0.8,0,1.5,0.7,1.5,1.5s-0.7,1.5-1.5,1.5H79.9c-1.9,0-3.7,0.9-4.8,2.4c-0.3,0.4-0.7,0.6-1.2,0.6c-0.3,0-0.6-0.1-0.9-0.3
			C72.3,81.3,72.2,80.4,72.7,79.7z"/>
		<path class="st0" d="M54.8,41.7c-0.3,0.2-0.6,0.3-0.9,0.3c-0.5,0-0.9-0.2-1.2-0.6C51.6,39.9,49.9,39,48,39v9.2
			c1.2,0,2.5,0.3,3.6,0.9c2.1,1.3,3.3,3.5,3.4,5.9c0.3,3.9,0.9,7.2,1.9,10.3l0.1,0.4v0.4l1.5,8.3c0.5,3.2,0.2,6.4-0.9,9.5V84
			l-1.5,3.9h0.3c2,0,3.8,0.7,5.4,1.7V13.9c0-0.4,0.1-0.8,0.1-1.2c-0.6-2.5-2.8-4.4-5.5-4.4H8.8v79.6h4.1l-2-7.3
			c-0.8-3.2-0.7-6.5,0.2-9.7v-0.1l6.5-18.6c1.5-3.9,5.1-6.4,9.2-6.6h4.4V39H16.1c-0.8,0-1.5-0.7-1.5-1.5s0.7-1.5,1.5-1.5h15.6
			c1.2-3.2,4.3-5.5,7.9-5.5c3.7,0,6.7,2.3,7.9,5.5h0.4c2.9,0,5.5,1.3,7.2,3.6C55.6,40.3,55.4,41.2,54.8,41.7z M54.8,31.7
			c-0.3,0.2-0.6,0.3-0.9,0.3c-0.5,0-0.9-0.2-1.2-0.6c-1.1-1.5-2.9-2.4-4.8-2.4H16.1c-0.8,0-1.5-0.7-1.5-1.5s0.7-1.5,1.5-1.5h31.8
			c2.9,0,5.5,1.3,7.2,3.6C55.6,30.3,55.4,31.2,54.8,31.7z M54.8,21.7c-0.3,0.2-0.6,0.3-0.9,0.3c-0.5,0-0.9-0.2-1.2-0.6
			c-1.1-1.5-2.9-2.4-4.8-2.4H16.1c-0.8,0-1.5-0.7-1.5-1.5s0.7-1.5,1.5-1.5h31.8c2.9,0,5.5,1.3,7.2,3.6
			C55.6,20.3,55.4,21.2,54.8,21.7z"/>
	</g>
	<g id="dark_1_">
		<path class="st1" d="M53.9,22c-0.5,0-0.9-0.2-1.2-0.6c-1.1-1.5-2.9-2.4-4.8-2.4H16.1c-0.8,0-1.5-0.7-1.5-1.5s0.7-1.5,1.5-1.5h31.8
			c2.9,0,5.5,1.3,7.2,3.6c0.5,0.7,0.3,1.6-0.3,2.1C54.5,21.9,54.2,22,53.9,22z"/>
		<path class="st1" d="M53.9,32c-0.5,0-0.9-0.2-1.2-0.6c-1.1-1.5-2.9-2.4-4.8-2.4H16.1c-0.8,0-1.5-0.7-1.5-1.5s0.7-1.5,1.5-1.5h31.8
			c2.9,0,5.5,1.3,7.2,3.6c0.5,0.7,0.3,1.6-0.3,2.1C54.5,31.9,54.2,32,53.9,32z"/>
		<path class="st1" d="M73.9,22c-0.3,0-0.6-0.1-0.9-0.3c-0.7-0.5-0.8-1.4-0.3-2.1c1.7-2.3,4.3-3.6,7.2-3.6h31.8
			c0.8,0,1.5,0.7,1.5,1.5s-0.7,1.5-1.5,1.5H79.9c-1.9,0-3.7,0.9-4.8,2.4C74.8,21.8,74.4,22,73.9,22z"/>
		<path class="st1" d="M73.9,32c-0.3,0-0.6-0.1-0.9-0.3c-0.7-0.5-0.8-1.4-0.3-2.1c1.7-2.3,4.3-3.6,7.2-3.6h31.8
			c0.8,0,1.5,0.7,1.5,1.5s-0.7,1.5-1.5,1.5H79.9c-1.9,0-3.7,0.9-4.8,2.4C74.8,31.8,74.4,32,73.9,32z"/>
		<path class="st1" d="M73.9,42c-0.3,0-0.6-0.1-0.9-0.3c-0.7-0.5-0.8-1.4-0.3-2.1c1.7-2.3,4.3-3.6,7.2-3.6h31.8
			c0.8,0,1.5,0.7,1.5,1.5s-0.7,1.5-1.5,1.5H79.9c-1.9,0-3.7,0.9-4.8,2.4C74.8,41.8,74.4,42,73.9,42z"/>
		<path class="st1" d="M73.9,62c-0.3,0-0.6-0.1-0.9-0.3c-0.7-0.5-0.8-1.4-0.3-2.1c1.7-2.3,4.3-3.6,7.2-3.6h31.8
			c0.8,0,1.5,0.7,1.5,1.5s-0.7,1.5-1.5,1.5H79.9c-1.9,0-3.7,0.9-4.8,2.4C74.8,61.8,74.4,62,73.9,62z"/>
		<path class="st1" d="M73.9,52c-0.3,0-0.6-0.1-0.9-0.3c-0.7-0.5-0.8-1.4-0.3-2.1c1.7-2.3,4.3-3.6,7.2-3.6h31.8
			c0.8,0,1.5,0.7,1.5,1.5s-0.7,1.5-1.5,1.5H79.9c-1.9,0-3.7,0.9-4.8,2.4C74.8,51.8,74.4,52,73.9,52z"/>
		<path class="st1" d="M73.9,82.1c-0.3,0-0.6-0.1-0.9-0.3c-0.7-0.5-0.8-1.4-0.3-2.1c1.7-2.3,4.3-3.6,7.2-3.6h31.8
			c0.8,0,1.5,0.7,1.5,1.5s-0.7,1.5-1.5,1.5H79.9c-1.9,0-3.7,0.9-4.8,2.4C74.8,81.9,74.4,82.1,73.9,82.1z"/>
		<path class="st1" d="M73.9,72c-0.3,0-0.6-0.1-0.9-0.3c-0.7-0.5-0.8-1.4-0.3-2.1c1.7-2.3,4.3-3.6,7.2-3.6h31.8
			c0.8,0,1.5,0.7,1.5,1.5s-0.7,1.5-1.5,1.5H79.9c-1.9,0-3.7,0.9-4.8,2.4C74.8,71.8,74.4,72,73.9,72z"/>
		<path class="st1" d="M48,38.9L48,38.9c1.9,0.1,3.6,1,4.7,2.5c0.3,0.4,0.7,0.6,1.2,0.6c0.3,0,0.6-0.1,0.9-0.3
			c0.6-0.5,0.8-1.4,0.3-2.1c-1.7-2.3-4.3-3.6-7.2-3.6h-0.4C47.8,36.9,48,37.9,48,38.9z"/>
		<path class="st1" d="M16.1,39h15.1v-0.1c0-1,0.2-2,0.5-2.9H16.1c-0.8,0-1.5,0.7-1.5,1.5S15.3,39,16.1,39z"/>
		<path id="dark_2_" class="st1" d="M126,10h-3V6.3c0-1.1-0.9-2-2-2H71.4c-3,0-5.7,1.4-7.5,3.6c-1.8-2.2-4.5-3.6-7.5-3.6H6.8
			c-1.1,0-2,0.9-2,2V10H2c-1.1,0-2,0.9-2,2v82.5c0,1.1,0.9,2,2,2h13.4c-0.1-0.2-0.2-0.4-0.2-0.6l-2.2-8H8.8V8.3h47.6
			c2.7,0,4.9,1.9,5.5,4.4c0,0.4-0.1,0.8-0.1,1.2v75.7c-1.6-1-3.4-1.7-5.4-1.7h-0.3l-3.3,8.6c-0.9,1.9-2.2,3.5-3.9,4.6
			c0.2,0.5,0.6,0.9,1.1,1.1c0.2,0.1,0.4,0.1,0.6,0.1h26.6c1.1,0,2-0.9,2-2c0-0.2,0-0.4-0.1-0.6L78,96.5h48c1.1,0,2-0.9,2-2V12
			C128,10.9,127.1,10,126,10z M119,87.9H71.4c-2,0-3.8,0.6-5.4,1.7V13.9c0-0.4,0-0.8-0.1-1.2c0.5-2.5,2.8-4.4,5.5-4.4H119V87.9z"/>
	</g>
</g>
<g id="hand">
	<path class="st1" d="M55.9,74.7l-1.5-8.5c0-0.1,0-0.1,0-0.2c-1.1-3.6-1.7-7.2-2-10.9c0-1.5-0.8-3-2.1-3.8c-1.4-0.8-3.2-0.7-4.7-0.3
		V38.9c0-3.2-2.6-5.9-5.9-5.9s-5.9,2.6-5.9,5.9v9.3h-6.9c-3.1,0.1-5.8,2-6.9,4.9l-6.4,18.6c-0.8,2.7-0.9,5.6-0.2,8.3l4.3,15.1
		c0.7,2.2,2.4,4,4.7,4.7v2.9c0,0.2,0,0.4,0.1,0.6h4c0.1-0.2,0.1-0.5,0.1-0.7L26.4,98c0-1.1-1-2-2.1-2c-1.2-0.1-2.3-0.9-2.7-2.1
		l-4.3-15c-0.4-1.9-0.4-3.9,0.2-5.8l6.4-18.6c0.5-1.2,1.7-2,3-2.1h6.9v5.2c0,0.1,0,0.2,0,0.3c0.1,1.1,1.1,2,2.2,1.9
		c1.1-0.1,2-1.1,1.9-2.2V38.9c0.1-0.9,0.7-1.5,1.6-1.6c1-0.1,1.8,0.6,1.9,1.6v35.3c0,1.1,0.9,2.1,2.1,2.1s2.1-0.9,2.1-2.1V55.3
		c1.1-0.4,2.3-0.6,2.6-0.5c0.1,0.1,0.1,0.3,0.1,0.4c0.3,4,1,7.9,2.1,11.7l1.5,8.5c0.3,2,0.1,4.1-0.6,6l-4.8,12.4
		c-0.6,1.2-1.8,2-3.1,2.1c0,0,0,0-0.1,0c-1.1,0-2.1,1-2,2.1l0.1,4.6c0,0.2,0.1,0.5,0.1,0.7h2.9c0.3,0,0.6,0.1,1,0.2
		c0.2-0.3,0.2-0.6,0.2-1l-0.1-2.9c2.2-0.7,3.9-2.3,4.9-4.4L55.1,83C56,80.3,56.3,77.5,55.9,74.7z"/>
	<path id="light" class="st0" d="M47.5,106.2c-0.1-1.6-1.5-2.9-3.1-2.9h-22c-1.6,0-3,1.3-3.1,2.9L17.1,128h32.5L47.5,106.2z"/>
</g>
</svg>
