<?xml version="1.0" encoding="utf-8"?>
<svg version="1.1" id="doing" xmlns="http://www.w3.org/2000/svg" xmlns:xlink="http://www.w3.org/1999/xlink" x="0px" y="0px" viewBox="0 0 128 128" style="enable-background:new 0 0 128 128;" xml:space="preserve">
<style>
  .st0{fill: #1a3e6f;}
  .st1{fill: #fff;}
  .st2{fill: none; stroke: #668aaa; stroke-linejoin: round; stroke-width: 1.75px;}
  .st3{fill: #668aaa;}
</style>
<path id="wrench" class="st0" d="M16.05,70.29c2.28-.08,4.47.28,6.47,1.01l47.5-47.73c-1.16-2.08-1.87-4.44-1.96-6.96C67.75,7.77,74.94.34,84.11.01c2.07-.07,4.06.24,5.91.84l-6.61,6.97,1.82,8.17,8.48,1,6.56-6.59c.61,1.57.97,3.25,1.04,5.01.32,8.84-6.86,16.27-16.04,16.6-2.39.09-4.67-.33-6.76-1.13l-47.05,48.15c1.06,2.01,1.7,4.26,1.79,6.65.32,8.84-6.86,16.27-16.04,16.6-2.07.07-4.06-.24-5.91-.84l6.61-6.97-1.82-8.17-8.48-1-6.56,6.59c-.61-1.57-.97-3.25-1.04-5.01-.32-8.84,6.86-16.27,16.04-16.6Z"/>
<path id="hand-bg" class="st1" d="M64.05,45.12l-14.42-13.82c-1.62-1.62-4.26-1.62-5.88,0l-1.12,1.12c-1.62,1.62-1.62,4.26,0,5.88l16.26,16.26-.15-.1-15.85-15.84c-1.62-1.62-4.26-1.62-5.88,0l-1.12,1.12c-1.62,1.62-1.62,4.26,0,5.88l16.26,16.26-.04-.1-13.93-13.97c-1.62-1.62-4.26-1.62-5.88,0l-1.12,1.12c-1.62,1.62-1.62,4.26,0,5.88l16.26,16.26h-.1s-13.34-13.37-13.34-13.37c-1.62-1.62-4.26-1.62-5.88,0l-1.12,1.12c-1.62,1.62-1.62,4.26,0,5.88l16.57,15.87,7.46,7.2,18.31,11.2,27.84-27.03s-6.45-7.5-6.61-12.96,1.44-8.45-3.21-12.89c-4.65-4.44-11.7-10.78-12.47-11.55l-10.84,10.54Z"/>
<path id="hand" class="st2" d="M75.06,34.41c.78.78,8,7.27,12.69,11.75,4.69,4.48,3.07,7.5,3.24,13,.16,5.5,6.67,13.07,6.67,13.07l-28.07,27.25-18.46-11.29-7.52-7.26-16.71-16c-1.64-1.64-1.64-4.29,0-5.93l1.13-1.13c1.64-1.64,4.29-1.64,5.93,0l13.45,13.49h.1s-16.4-16.41-16.4-16.41c-1.64-1.64-1.64-4.29,0-5.93l1.13-1.13c1.64-1.64,4.29-1.64,5.93,0l14.04,14.08.04.1-16.4-16.4c-1.64-1.64-1.64-4.29,0-5.93l1.13-1.13c1.64-1.64,4.29-1.64,5.93,0l15.98,15.97.15.1-16.4-16.4c-1.64-1.64-1.64-4.29,0-5.93l1.13-1.13c1.64-1.64,4.29-1.64,5.93,0l14.54,13.93s2.93,2.65,5.38,4.14c3.02,1.83,8.9,1.62,11.87-.22"/>
<polygon id="cuff" class="st3" points="100.97 67.06 63.12 102.69 85.46 126.56 123.43 90.98 100.97 67.06"/>
</svg>