<?xml version="1.0" encoding="utf-8"?>
<!-- Generator: Adobe Illustrator 21.1.0, SVG Export Plug-In . SVG Version: 6.00 Build 0)  -->
<svg version="1.1" id="example" xmlns="http://www.w3.org/2000/svg" xmlns:xlink="http://www.w3.org/1999/xlink" x="0px" y="0px"
	 viewBox="0 0 128 128" style="enable-background:new 0 0 128 128;" xml:space="preserve">
<style type="text/css">
	.st0{fill:#49C5B1;}
</style>
<path id="circle_1_" class="st0" d="M52.1,73.5c2.9,0,5.2,2.4,5.1,5.3s-2.4,5.2-5.3,5.1s-5.2-2.4-5.1-5.3c0-1.4,0.6-2.7,1.6-3.6
	C49.3,74,50.7,73.5,52.1,73.5z"/>
<path id="circle" class="st0" d="M120.2,73.5c2.9,0,5.2,2.4,5.1,5.3c0,2.9-2.4,5.2-5.3,5.1s-5.2-2.4-5.1-5.3c0-1.4,0.6-2.7,1.6-3.6
	C117.5,74,118.8,73.5,120.2,73.5z"/>
<path id="E" class="st0" d="M39,71.5l1.8,2.8l-9.4,6.9c-1.2,0.9-2.6,1.5-4,1.9c-2,0.6-4.1,0.9-6.2,0.9c-5.1,0-10-2.2-13.2-6.2
	c-3.6-4.1-5.5-9.7-5.5-16.7c0-7.6,2.2-13.6,6.5-18.2c4.1-4.5,9.9-6.9,16-6.8c4.9,0,8.7,1.3,11.3,4c2.7,2.7,4,6.8,4.1,12.4
	c-1.3,0.8-2.5,1.7-3.6,2.8h-4.2c-8.4,0-15.6,0.1-21.8,0.4c0,7.1,1.2,12.4,3.6,16c2,3.4,5.7,5.5,9.7,5.5c2.2,0,4.4-0.4,6.4-1.2
	C33.5,74.7,36.3,73.2,39,71.5z M32.1,50.8c-0.2-3.1-0.9-5.5-2.1-7.1c-1.6-2.3-4.3-3.6-7.1-3.5c-2.5,0-5,1-6.9,2.7
	c-2,1.8-3.5,4.7-4.5,8.8c1.2,0,2.1,0,2.6,0C19.3,51.6,25.3,51.4,32.1,50.8z"/>
<path id="G" class="st0" d="M107.5,37.9l0.4,0.7c-0.7,1.4-1.4,3-2.1,4.5c-2.4-0.3-4.8-0.4-7.3-0.5c1.9,2.8,2.9,6.1,3,9.4
	c0.1,4.3-1.8,8.5-5,11.4c-3.3,3.1-7.9,4.6-13.8,4.6c-1.7,0-3.4-0.2-5-0.5c-2.4,2.2-3.5,3.8-3.5,4.9c0,0.8,0.4,1.6,1.2,1.9
	c1.3,0.7,4.8,1.1,10.4,1.1l8.3-0.1c4.9,0,8.3,0.8,10.2,2.5s2.8,4.1,2.8,7.3c0,4.5-2.1,8.7-5.8,11.2c-5.6,4.3-12.8,6.5-21.6,6.5
	c-6.1,0-10.6-1.1-13.5-3.3s-4.3-4.6-4.3-7.2c0-1.1,0.2-2.2,0.7-3.2c0.7-0.8,1.4-1.4,2.3-1.9l7.5-5.3c-1.9-0.3-3.6-1.1-4.9-2.5
	c-1-1.1-1.6-2.5-1.6-4c-0.1-0.9,0.3-1.7,1-2.2c1.6-1.3,4.2-3.5,7.7-6.7c-2.5-1.2-4.6-3-6.1-5.4c-1.4-2.4-2.1-5-2-7.8
	c-0.1-4.5,1.7-8.9,5.1-12c3.4-3.2,8-4.8,13.9-4.8c1.4,0,2.9,0.1,4.3,0.4c1.6,0.3,3.2,0.7,4.7,1.2c1.7,0,3,0,4,0
	C102.6,38.1,105.6,38,107.5,37.9z M76.6,81.9c-2,1.5-3.7,3.3-5.2,5.3C70.5,88.3,70,89.7,70,91c0.1,1.8,1.1,3.5,2.6,4.4
	C75,97.1,78.3,98,82.7,98c4.9,0,9-0.9,12.2-2.8c3.2-1.8,4.8-4.4,4.8-7.5c0.1-1.7-0.6-3.3-1.9-4.4c-1.3-1-3.7-1.5-7.3-1.5h-2
	L76.6,81.9z M74.6,51.2c0,4.5,0.9,7.9,2.7,10.1c1.6,2.1,4.1,3.4,6.7,3.4c2.4,0,4.7-1,6.2-2.9c1.6-1.9,2.5-4.7,2.5-8.5
	c0-4.6-0.9-8-2.6-10.2c-1.6-2.1-4.1-3.2-6.6-3.2c-2.4,0-4.7,1-6.3,2.8C75.5,44.7,74.7,47.5,74.6,51.2L74.6,51.2z"/>
</svg>
