<?xml version="1.0" encoding="utf-8"?>
<svg version="1.1" id="knowing" xmlns="http://www.w3.org/2000/svg" xmlns:xlink="http://www.w3.org/1999/xlink" x="0px" y="0px" viewBox="0 0 128 128" style="enable-background:new 0 0 128 128;" xml:space="preserve">
<style>
  .st0{fill: #2c766a;}
  .st1{fill: #50bfae;}
  .st2{fill: none; stroke: #fff; stroke-linejoin: round; stroke-linecap: round; stroke-width: 1.8px;}
</style>
<path id="head" class="st0" d="M17.09,37.33C23.34,15.17,41.56.09,71.79.09c28.17-2.12,92.06,33.7,28.48,97.57-3,5.19-4.64,11.78-4.64,16.03s-.39,14.53-.39,14.53h-53.27l.39-8.89c0-3.37-3.15-6.11-7.04-6.11h-15.73c-3.03,0-5.49-2.13-5.49-4.76v-24.94c0-4.95-4.89-7.07-7.61-7.31-.88-.08-2.1-.1-3.34-.1-2.39,0-3.9-2.22-2.76-4.03,3.37-5.38,9.12-14.53,11.54-18.25,3.53-5.42,5.16-16.5,5.16-16.5Z"/>
<path id="brain_bg_color" class="st1" d="M93.03,66.65c2.33,0,4.29,4.15,4.21,10.4.06,2.68-4.21,2.23-4.21,0,0-5.48-1.88-9.91-4.21-9.91-5.89,0-12.3-1.9-11.97-5.94-4.53,2.23-10.9-1.82-10.32-5.7-5.8,1.66-11.15-3.01-11.15-7.84-.62,2.17-3.8,3.85-8.5,3.85-4.15,0-6.77-1.46-7.51-3.85-5.51,0-9.98-5.32-9.98-10.07,0-6.38,4.56-9.52,8.57-9.52-.93-5.37-.95-7.95,3.1-10.67,5.06-3.22,11-1.07,12.84.04,1.11-4.27,4.7-7.29,10.82-7.29,2.54,0,7.06.37,9.5,5.31,1.38-1.65,6.54-3.86,11.54-2.44,3.1.89,5.94,3.76,6.3,7.89,5.06-1.19,9.55-.31,12.01,1.65s5.47,5.8,1.75,11.58c4.67.54,9.58,3.77,9.58,8.42,0,4.96-5.89,9.56-11.54,9.56,3.46,5.48-1.56,9.08-5.21,9.08,0,3.01-2.51,5.45-5.61,5.45Z"/>
<g id="brain_squiggles">
  <path class="st2" d="M93.03,66.65c2.33,0,4.29,4.15,4.21,10.4.06,2.68-4.21,2.23-4.21,0,0-5.48-1.88-9.91-4.21-9.91-5.89,0-12.3-1.9-11.97-5.94-4.53,2.23-10.9-1.82-10.32-5.7-5.8,1.66-11.15-3.01-11.15-7.84-.62,2.17-3.8,3.85-8.5,3.85-4.15,0-6.77-1.46-7.51-3.85-5.51,0-9.98-5.32-9.98-10.07,0-6.38,4.56-9.52,8.57-9.52-.93-5.37-.95-7.95,3.1-10.67,5.06-3.22,11-1.07,12.84.04,1.11-4.27,4.7-7.29,10.82-7.29,2.54,0,7.06.37,9.5,5.31,1.38-1.65,6.54-3.86,11.54-2.44,3.1.89,5.94,3.76,6.3,7.89,5.06-1.19,9.55-.31,12.01,1.65s5.47,5.8,1.75,11.58c4.67.54,9.58,3.77,9.58,8.42,0,4.96-5.89,9.56-11.54,9.56,3.46,5.48-1.56,9.08-5.21,9.08,0,3.01-2.51,5.45-5.61,5.45Z"/>
  <path class="st2" d="M45.58,36.46c2.03-1.19,5.18-4.03,3.58-8.06,1.06,1.64,3.43,3.48,7.37,2.89,3.43-.43,6.58-3.56,6.87-6.17.68.59,5.88,5.48,12.64,1.49"/>
  <path class="st2" d="M104.1,45.05c-1.78.6-4.67.55-7.26-2.26-2.31-2.39-2.8-6.62-1.45-8.75-.86.04-7.7.58-10.38-6.47"/>
</g>
</svg>