<?xml version="1.0" encoding="utf-8"?>
<!-- Generator: Adobe Illustrator 21.1.0, SVG Export Plug-In . SVG Version: 6.00 Build 0)  -->
<svg version="1.1" id="note" xmlns="http://www.w3.org/2000/svg" xmlns:xlink="http://www.w3.org/1999/xlink" x="0px" y="0px"
	 viewBox="0 0 128 128" style="enable-background:new 0 0 128 128;" xml:space="preserve">
<style type="text/css">
	.st0{fill:#49C5B1;}
	.st1{fill:#2C766A;}
</style>
<g id="Light">
	<path id="light_1_" class="st0" d="M119.7,64.4c0,0-55.4,32.6-56,32.8L7.2,63.9l-3.5,2.2l60.1,35.6l59.2-35L119.7,64.4z"/>
	<path id="light_2_" class="st0" d="M3.7,73.7l60.1,35.5l59.2-35l-3.4-2.1c0,0-55.5,32.7-55.9,32.9L7.3,71.6L3.7,73.7z"/>
	<path id="light" class="st0" d="M119.3,56.5c0,0-55.2,33.4-55.5,33.5L7.3,56.4l-3.5,2.1l60,35.6L123,59L119.3,56.5z"/>
	<path id="light_3_" class="st0" d="M109.1,44.4l-1.1,0.8L76.3,69l-5.6,4.2c0,0-18.7,0.2-46.6-10.3l39.7,23.6L123.7,51l-14.4-6.8
		L109.1,44.4z"/>
</g>
<g id="Dark">
	<path id="dark" class="st1" d="M63.8,109.2L3.7,73.7v3.4L64,112.3l59-34.6v-3.5L63.8,109.2z"/>
	<path id="dark_3_" class="st1" d="M3.7,66.1v3.4l60,35.5L123,70.1v-3.4l-59.2,35"/>
	<path id="dark_1_" class="st1" d="M63.8,94.1l-60-35.6v3.4l3.9,2.3l56.1,33.1L123,62.5V59L63.8,94.1z"/>
	<path id="dark_5_" class="st1" d="M42.1,44.4c0.9,0.5,2.6,1.5,3.8,0.8s-0.3-1.7-1.3-2.2s-2.7-1.5-3.9-0.8S41.2,43.9,42.1,44.4z"/>
	<path id="dark_2_" class="st1" d="M24.1,62.9C52,73.4,70.7,73.2,70.7,73.2l5.6-4.2L108,45.2l1.1-0.8l17.4-13.1
		c0-0.1-13.7,2.9-41-5.3c-7.4-2.3-14.6-5.2-21.5-8.8c-0.2-0.1-0.4-0.1-0.6,0L3.8,52.6v1.7l60,35.8l59.7-35.3l0.2-3.8L63.8,86.5
		L24.1,62.9z M62.2,27.3l2.3,1.3l-4,2.3l1.3,0.8l3.9-2.2l2.3,1.3L64,33l1.3,0.7l4.1-2.4l2.3,1.3l-7.2,4.2l-9.4-5.4L62.2,27.3z
		 M53.2,32.5l2.9,1.6l-2.8,1.6l6.7,3.8l-3.2,1.8l-6.7-3.8l-2.8,1.6l-2.8-1.6L53.2,32.5z M38.4,40.8c2.9-1.7,6.6-1.6,9.5,0.2
		c3.1,1.9,3.1,3.9,0.2,5.5c-2.9,1.7-6.6,1.6-9.4-0.2C35.5,44.5,35.5,42.5,38.4,40.8z M27.8,47.2l8.2,3l-6.7-3.8l2.7-1.6l9.5,5.5
		L36.9,53l-8.5-3l6.8,4l-2.7,1.6l-9.4-5.7L27.8,47.2z"/>
</g>
</svg>
