<?xml version="1.0" encoding="utf-8"?>
<!-- Generator: Adobe Illustrator 21.1.0, SVG Export Plug-In . SVG Version: 6.00 Build 0)  -->
<svg version="1.1" id="outcome" xmlns="http://www.w3.org/2000/svg" xmlns:xlink="http://www.w3.org/1999/xlink" x="0px" y="0px"
	 viewBox="0 0 128 128" style="enable-background:new 0 0 128 128;" xml:space="preserve">
<style type="text/css">
	.st0{fill:#003C71;}
	.st1{fill:#668AAA;}
</style>
<g id="checkmark">
	<path class="st0" d="M107,61.3c-2.2-1.7-5.4-1.2-7.1,1L73.2,97.5l-7.5-12.8c-1.4-2.4-4.5-3.2-6.9-1.8c-2.4,1.4-3.2,4.5-1.8,6.9
		l11.4,19.3c0.8,1.5,2.4,2.4,4.1,2.5h0.3c1.6,0,3.1-0.7,4-2L108,68.4C109.6,66.2,109.2,63,107,61.3z"/>
	<path id="dark" class="st0" d="M83.7,39.3c-24.5,0-44.4,19.9-44.4,44.4S59.2,128,83.7,128S128,108.1,128,83.6
		C128,59.2,108.1,39.3,83.7,39.3z M83.7,120.7c-20.4,0-37-16.6-37-37s16.6-37,37-37s37,16.6,37,37S104.1,120.7,83.7,120.7z"/>
</g>
<g id="paper">
	<path id="light" class="st1" d="M2,2v107.6h40.8c-3.4-5.3-5.7-11.2-6.9-17.6h-6.7v-5.1h6.1c-0.1-1.1-0.1-2.2-0.1-3.3
		c0-5.5,0.9-10.8,2.6-15.7h-8.6v-5.1c0,0,10.6,0,10.7,0c3.7-7.8,9.4-14.4,16.5-19.2H29.2v-5h36.7c5.5-2.1,11.4-3.3,17.7-3.3
		c2.2,0,4.3,0.2,6.4,0.5V2H2z M23.9,94.8H13.2V84.1h10.7V94.8z M23.9,70.7H13.2V60h10.7V70.7z M23.9,46.4H13.2V35.7h10.7V46.4z
		 M23.9,22.3H13.2V11.6h10.7V22.3z M78.9,19.4H29.2v-5h49.7V19.4z"/>
	<path id="dark_9_" class="st0" d="M41.6,107.6H4V4h84h0.1v31.5c1.4,0.2,2.7,0.5,4,0.8V0H92H0v111.7h44.2
		C43.3,110.4,42.4,109,41.6,107.6z"/>
	<path id="dark_8_" class="st0" d="M21.9,13.6v6.7h-6.7v-6.7L21.9,13.6 M23.9,11.6H13.2v10.7h10.7V11.6L23.9,11.6z"/>
	<path id="dark_7_" class="st0" d="M21.9,37.7v6.7h-6.7v-6.7H21.9 M23.9,35.7H13.2v10.7h10.7V35.7L23.9,35.7z"/>
	<path id="dark_6_" class="st0" d="M21.9,86.1v6.7h-6.7v-6.7H21.9 M23.9,84.1H13.2v10.7h10.7V84.1L23.9,84.1z"/>
	<polygon id="dark_5_" class="st0" points="23.9,59.9 13.2,59.9 13.2,70.6 23.9,70.6 	"/>
	<rect id="dark_4_" x="29.2" y="14.4" class="st0" width="49.7" height="5"/>
	<path id="dark_3_" class="st0" d="M29.2,38.6v5h27.2c3.1-2.1,6.1-3.6,9.5-5H29.2z"/>
	<path id="dark_2_" class="st0" d="M29.2,62.8v5.1h8.6c0.6-1.7,1.3-3.4,2.1-5.1C39.9,62.8,29.2,62.8,29.2,62.8z"/>
	<path id="dark_1_" class="st0" d="M35.3,86.9h-6.1V92h6.7C35.6,90.3,35.4,88.6,35.3,86.9z"/>
</g>
</svg>
