<?xml version="1.0" encoding="utf-8"?>
<!-- Generator: Adobe Illustrator 21.1.0, SVG Export Plug-In . SVG Version: 6.00 Build 0)  -->
<svg version="1.1" id="quote" xmlns="http://www.w3.org/2000/svg" xmlns:xlink="http://www.w3.org/1999/xlink" x="0px" y="0px"
	 viewBox="0 0 128 128" style="enable-background:new 0 0 128 128;" xml:space="preserve">
<style type="text/css">
	.st0{fill:#2C766A;}
	.st1{fill:#49C5B1;}
</style>
<path id="dark" class="st0" d="M111,87.6c16.8-12.1,22.1-35.2,11.5-53.5c-11.2-19.5-36.2-26.2-55.7-15c-0.3,0.2-0.5,0.3-0.8,0.5
	c7,5,12.4,11.9,15.5,20h6.6c0.5,0,0.9,0.4,0.9,0.9v6.6c0.1,4-0.4,8-1.7,11.8c-0.9,2.4-2.4,4.5-4.2,6.2c-2.4,10-8.2,18.7-16.2,24.7
	c10.6,6.1,23.6,7.3,35.4,2.6l13,17.1c0.6,1.1,2,1.5,3.1,0.9s1.5-2,0.9-3.1L111,87.6z M108.1,58.9c-1.1,2.9-3,5.5-5.6,7.3
	c-1.6,1.2-3.4,2.2-5.3,3c-0.1,0-0.2,0-0.2,0c-0.5,0-0.9-0.5-0.9-0.9v-1.6c0-0.3,0.1-0.6,0.3-0.8c2.3-1.6,3.8-4.1,4.2-6.8l0.4-2.6h-4
	c-0.5,0-0.9-0.4-0.9-0.9v-15c0-0.5,0.4-0.9,0.9-0.9h11.8c0.5,0,0.9,0.4,0.9,0.9v6.6C109.9,51.1,109.4,55.1,108.1,58.9z"/>
<path id="light" class="st1" d="M61.2,19.1c-19.5-11.2-44.5-4.5-55.7,15C-5.1,52.4,0.2,75.5,17,87.6l-8.2,19.6
	c-0.6,1.1-0.2,2.5,0.9,3.1s2.5,0.2,3.1-0.9l13-17.1c18.5,7.4,40.1,0.2,50.4-17.5C87.4,55.3,80.7,30.4,61.2,19.1z M35.4,40.2
	c0,0.3-0.1,0.6-0.4,0.8c-2.3,1.6-3.8,4.1-4.2,6.8l-0.4,2.6h3.9c0.5,0,0.9,0.4,0.9,0.9v14.9c0,0.5-0.4,0.9-0.9,0.9l0,0H22.5
	c-0.5,0-0.9-0.4-0.9-0.9v-6.6c-0.1-4,0.4-8,1.7-11.8c1.1-2.9,3.1-5.5,5.6-7.3c1.6-1.2,3.4-2.2,5.3-3c0.1,0,0.2,0,0.2,0
	c0.5,0,0.9,0.5,0.9,0.9L35.4,40.2L35.4,40.2z M56.2,66.2c0,0.5-0.4,0.9-0.9,0.9H43.4c-0.5,0-0.9-0.4-0.9-0.9v-6.6
	c-0.1-4,0.4-8,1.7-11.8c1.1-2.9,3-5.5,5.5-7.3c1.6-1.2,3.4-2.3,5.3-3c0.1,0,0.2,0,0.2,0c0.5,0,0.9,0.5,0.9,0.9v1.7
	c0,0.3-0.1,0.6-0.3,0.8c-2.3,1.6-3.8,4.1-4.2,6.8l-0.4,2.6h4c0.5,0,0.9,0.4,0.9,0.9L56.2,66.2z"/>
</svg>
