<?xml version="1.0" encoding="utf-8"?>
<!-- Generator: Adobe Illustrator 21.1.0, SVG Export Plug-In . SVG Version: 6.00 Build 0)  -->
<svg version="1.1" id="reading" xmlns="http://www.w3.org/2000/svg" xmlns:xlink="http://www.w3.org/1999/xlink" x="0px" y="0px"
	 viewBox="0 0 128 128" style="enable-background:new 0 0 128 128;" xml:space="preserve">
<style type="text/css">
	.st0{fill:#668AAA;}
	.st1{fill:#003C71;}
</style>
<g id="body">
	<path id="light" class="st0" d="M104.7,28.9c-3.8,0-6.6-3.9-6.2-7.7s3.3-6.2,7.7-6.2c3.5,0,2.9-5.2,0-5.2h-38V15h28
		c-2.9,4.2-2.9,9.7,0,13.9H31.3c-3.3-0.4-5.9-2.9-6.2-6.2c-0.4-3.8,2.4-7.3,6.2-7.7h11.1V9.8H31.3c-12.7,0-11.9,13.8-11.9,14.7v91.6
		c0,5.6,3.9,10.4,9.3,11.6v-93l2.7,0.3v93h74.8c1.3,0,2.3-1,2.3-2.3v-93C108.5,30.2,107.5,28.9,104.7,28.9z M90.1,71.6
		c0,2.2-1.8,3.9-3.9,3.9H51.7c-2.2,0-3.9-1.8-3.9-3.9V57.9c0-2.2,1.8-3.9,3.9-3.9h34.5c2.2,0,3.9,1.8,3.9,3.9V71.6z"/>
	<path id="dark_2_" class="st1" d="M28.7,34.7v93c0.8,0.2,1.7,0.3,2.6,0.3h0.1V35L28.7,34.7z"/>
	<path id="dark_1_" class="st1" d="M87.2,77H50.7c-2.4,0-4.4-2-4.4-4.4V56.9c0-2.4,2-4.4,4.4-4.4h36.5c2.4,0,4.4,2,4.4,4.4v15.7
		C91.6,75,89.6,77,87.2,77z M50.7,55.5c-0.8,0-1.4,0.6-1.4,1.4l0,0v15.7c0,0.8,0.7,1.4,1.4,1.4h36.5c0.8,0,1.4-0.6,1.4-1.4l0,0V56.9
		c0-0.8-0.6-1.4-1.4-1.4l0,0H50.7z"/>
</g>
<path id="tag" class="st1" d="M66.7,26.7H43.9c-0.8,0-1.5-0.7-1.5-1.5l0,0V5.6C42.4,2.5,44.9,0,48,0h14.6c3.1,0,5.6,2.5,5.6,5.6
	v19.6C68.2,26,67.6,26.7,66.7,26.7z M45.4,23.7h19.8V5.6C65.2,4.2,64,3,62.6,3H48c-1.4,0-2.6,1.2-2.6,2.6l0,0V23.7z"/>
</svg>
