<?xml version="1.0" encoding="utf-8"?>
<!-- Generator: Adobe Illustrator 21.1.0, SVG Export Plug-In . SVG Version: 6.00 Build 0)  -->
<svg version="1.1" id="review" xmlns="http://www.w3.org/2000/svg" xmlns:xlink="http://www.w3.org/1999/xlink" x="0px" y="0px"
	 viewBox="0 0 128 128" style="enable-background:new 0 0 128 128;" xml:space="preserve">
<style type="text/css">
	.st0{fill:#003C71;}
	.st1{fill:#668AAA;}
</style>
<g id="dark">
	<path id="outer-eye" class="st0" d="M127.9,60.2c0-0.2-0.1-0.4-0.1-0.7c-1.7,12.6-18.5,23.3-41.7,27.5c5.7-5.7,9.3-13.6,9.3-22.3
		c0-10.7-5.4-20.1-13.5-25.8C76.2,38.3,70.2,38,64,38s-12.2,0.3-17.9,0.9C38,44.6,32.6,54,32.6,64.7c0,8.7,3.6,16.6,9.3,22.3
		c-23.2-4.2-40-14.8-41.7-27.5c0,0.2-0.1,0.4-0.1,0.7c0-0.3-0.1-0.6-0.1-1c0,0.3,0,0.5,0,0.8c0,22.2,28.6,40.1,64,40.1
		s64-18,64-40.1c0-0.2,0-0.3,0-0.5C128,59.7,128,59.9,127.9,60.2z M75.7,88.4c-3.8,0.3-7.7,0.5-11.7,0.5s-7.9-0.2-11.7-0.5
		c-8.7-4.3-14.7-13.3-14.7-23.7c0-14.6,11.8-26.4,26.4-26.4c14.6,0,26.4,11.8,26.4,26.4C90.4,75.1,84.4,84.1,75.7,88.4z"/>
	<path id="eye" class="st0" d="M64,48.2c-1.9,0-3.8,0.3-5.6,1c3.6,1.6,5.2,5.8,3.6,9.3c-1.6,3.6-5.8,5.2-9.3,3.6
		c-1.7-0.8-3.1-2.2-3.7-4c-3.6,8.3,0.2,18,8.6,21.7s18-0.2,21.7-8.6c3.6-8.3-0.2-18-8.6-21.7C68.5,48.7,66.3,48.2,64,48.2z"/>
</g>
<path id="light_1_" class="st1" d="M64,38C29.4,38,1.3,47.9,0.1,60.2c0-0.3-0.1-0.7-0.1-1.1C0,43,28.6,29.8,64,29.8s64,13.2,64,29.3
	c0,0.4,0,0.7-0.1,1.1C126.7,47.9,98.6,38,64,38z"/>
</svg>
