<?xml version="1.0" encoding="utf-8"?>
<!-- Generator: Adobe Illustrator 21.1.0, SVG Export Plug-In . SVG Version: 6.00 Build 0)  -->
<svg version="1.1" id="warning" xmlns="http://www.w3.org/2000/svg" xmlns:xlink="http://www.w3.org/1999/xlink" x="0px" y="0px"
	 viewBox="0 0 128 128" style="enable-background:new 0 0 128 128;" xml:space="preserve">
<style type="text/css">
	.st0{fill:#49C5B1;}
	.st1{fill:#2C766A;}
</style>
<path id="light" class="st0" d="M120.9,18.6c0-2.5-2-4.6-4.6-4.6L11.6,14.1c-0.8,0-1.6,0.2-2.3,0.6c-2.2,1.3-3,4.1-1.7,6.3L60,111.7
	c0.4,0.7,1,1.3,1.7,1.7c2.2,1.3,5,0.5,6.3-1.7l52.3-90.8C120.7,20.2,120.9,19.4,120.9,18.6z M71,88.7c0,2.4-2,4.4-4.4,4.4h-5.2
	c-2.4,0-4.4-1.9-4.4-4.3v-5.3c0-2.4,1.9-4.4,4.3-4.4c0,0,0,0,0.1,0h5.3C69.1,79,71,81,71,83.4V88.7z M71.6,36.9c0,0.1,0,0.3,0,0.4
	l-3.2,32.9c-0.2,2.2-2.1,4-4.4,3.9c-2.2,0-4.1-1.7-4.3-3.9l-3.2-32.9c0-0.1,0-0.3,0-0.4V24.3c0-2.4,2-4.3,4.3-4.3h6.4
	c2.4,0,4.4,2,4.4,4.4V36.9z"/>
<path id="dark_1_" class="st1" d="M116.3,14c2.6,0,4.6,2.1,4.6,4.6c0,0.8-0.2,1.6-0.6,2.3L68,111.7c-1.3,2.2-4.1,3-6.3,1.7
	c-0.7-0.4-1.3-1-1.7-1.7L7.6,21c-1.3-2.2-0.5-5,1.7-6.3c0.7-0.4,1.5-0.6,2.3-0.6L116.3,14 M116.3,7.1H11.6C5.2,7.1,0,12.3,0,18.7
	c0,2,0.5,4,1.5,5.7l52.3,90.7c2,3.6,5.9,5.9,10.1,5.8l0,0c4.2,0,8-2.2,10.1-5.8l52.4-90.7c3.2-5.5,1.4-12.7-4.2-15.9
	C120.5,7.5,118.4,7,116.3,7.1L116.3,7.1z"/>
</svg>
