<?xml version="1.0" encoding="utf-8"?>
<!-- Generator: Adobe Illustrator 21.1.0, SVG Export Plug-In . SVG Version: 6.00 Build 0)  -->
<svg version="1.1" id="activity" xmlns="http://www.w3.org/2000/svg" xmlns:xlink="http://www.w3.org/1999/xlink" x="0px" y="0px"
	 viewBox="0 0 128 128" style="enable-background:new 0 0 128 128;" xml:space="preserve">
<style type="text/css">
	.st0{fill:#668AAA;}
	.st1{fill:#003C71;}
</style>
<g id="mouse">
	<path id="light_2_" class="st0" d="M54.7,36.4h9.9l-0.1-13.1c-4.2,0.3-8,0.8-11.7,1.8c-0.9,0.2-1.5,0.9-1.8,1.7
		c-0.4,2.2-1.3,6.6-1.8,11.9C50.7,37.4,52.6,36.6,54.7,36.4z"/>
	<path id="light" class="st0" d="M71.2,36.4c3.7,0,6.7,2.9,6.8,6.6v6.8c0,1.5,1.2,2.7,2.7,2.7h1c1,0.1,2,0.3,2.9,0.7
		c0.7-10.9-1.7-22.7-2.6-26.7c-0.2-0.9-0.9-1.5-1.7-1.7c-3.8-0.8-7.8-1.3-11.8-1.5l0.1,13.1H71.2z"/>
</g>
<g id="hand">
	<path id="light_1_" class="st0" d="M77.1,107.8H49c-1,0-1.9,0.8-2,1.8L45.2,128h35.7l-1.8-18.4C79,108.6,78.2,107.8,77.1,107.8z"/>
	<path id="dark" class="st1" d="M84.3,95.9l6.2-16c0.9-3.1,1.2-6.5,0.8-10v-0.1l-2-11c-0.2-0.7-1.8-27.1-3.2-33
		c-0.6-2.4-2.3-4.1-4.7-4.7c-4.1-1.1-8.4-1.6-12.8-1.8c0-0.4,0-0.7,0-1.1c0.2-7.9,1.8-14,4.6-18.2h-2.4h-0.6h-1.6
		c-2.5,4.9-3.8,11.3-4,19.3c-4.6,0.3-8.7,0.9-12.7,2c-2.4,0.6-4.1,2.3-4.7,4.7c-1,4.4-2.5,13-2.5,22l-6.2,18.1
		c-1,3.2-1.1,6.7-0.3,10v0.1l5.5,19.2c1,2.9,3.2,4.9,5.9,5.7l0.1,3.1H49c-3.2,0-5.8,2.4-6,5.6L41.2,128h2.1h0.2h1.8l1.7-18
		c0.1-1,0.9-1.9,2-1.9h28.1c1.1,0,1.9,0.8,2,1.9l1.8,18h2h2l-1.8-18.2c-0.2-2.7-2.2-5-4.9-5.5l-0.1-3
		C80.8,100.6,83.2,98.6,84.3,95.9z M52.8,25.1c3.7-1,7.5-1.5,11.7-1.8l0.1,13.1h-9.9c-2.1,0.2-4,1-5.5,2.3c0.5-5.3,1.4-9.7,1.8-11.9
		C51.3,26,51.9,25.3,52.8,25.1z M80.3,24.8c0.8,0.2,1.5,0.8,1.7,1.7c0.9,4,3.3,15.8,2.6,26.7c-0.9-0.4-1.9-0.6-2.9-0.7h-1
		c-1.5,0-2.7-1.2-2.7-2.7V43c-0.1-3.7-3.1-6.6-6.8-6.6h-2.6l-0.1-13.1C72.5,23.5,76.5,24,80.3,24.8z M75.9,97.6c-1.1,0-2,1-1.9,2.1
		l0.2,4.5H53.7l-0.1-4.8c0-1.1-0.9-1.9-1.9-2c-1.9-0.1-3.5-1.3-4.1-3.2l-5.5-19c-0.6-2.6-0.5-5.4,0.3-7.8l8.2-23.7
		c0.7-1.8,2.5-3,4.5-3.2h16.3c3.1,0,2.6,5.3,2.6,5.6l-0.1,29.8c0,1.1,0.9,2,2,2s2-0.9,2-2l0.1-20c0.9,0.4,1.9,0.7,2.9,0.7h0.9
		c1.8,0.1,3.3,1.4,3.7,3.1l2,10.8c0.4,2.8,0.1,5.5-0.8,8.1l-6.2,15.8C79.7,96.3,77.9,97.5,75.9,97.6z"/>
</g>
</svg>
