<?xml version="1.0" encoding="utf-8"?>
<!-- Generator: Adobe Illustrator 21.1.0, SVG Export Plug-In . SVG Version: 6.00 Build 0)  -->
<svg version="1.1" id="discussion" xmlns="http://www.w3.org/2000/svg" xmlns:xlink="http://www.w3.org/1999/xlink" x="0px" y="0px"
	 viewBox="0 0 128 128" style="enable-background:new 0 0 128 128;" xml:space="preserve">
<style type="text/css">
	.st0{fill:#668AAA;}
	.st1{fill:#003C71;}
</style>
<path id="light" class="st0" d="M111,89.8c16.8-12.1,22.1-35.2,11.5-53.5c-11.1-19.2-35.5-26-54.8-15.4
	c10.9,8.2,17.9,21.2,17.9,35.8s-7,27.6-17.9,35.8c10.4,5.7,23.1,6.7,34.5,2.1l13,17.1c0.6,1.1,2,1.5,3.1,0.9s1.5-2,0.9-3.1L111,89.8
	z M93.7,61c-2.3,0-4.1-1.9-4.1-4.2s1.8-4.2,4.1-4.2c2.3,0,4.1,1.9,4.1,4.2S96,61,93.7,61z M106.7,61.1c-2.3,0-4.1-1.9-4.1-4.2
	s1.8-4.2,4.1-4.2s4.1,1.9,4.1,4.2S108.9,61.1,106.7,61.1z"/>
<path id="dark" class="st1" d="M61.2,21.4C41.7,10.1,16.7,16.8,5.5,36.3C-5.1,54.6,0.2,77.7,17,89.8l-8.2,19.6
	c-0.6,1.1-0.2,2.5,0.9,3.1s2.5,0.2,3.1-0.9l13-17.1c18.5,7.4,40.1,0.2,50.4-17.5C87.4,57.6,80.7,32.6,61.2,21.4z M21.3,61
	c-2.3,0-4.1-1.9-4.1-4.2s1.8-4.2,4.1-4.2s4.1,1.9,4.1,4.2S23.5,61,21.3,61z M34.2,61c-2.3,0-4.1-1.9-4.1-4.2s1.8-4.2,4.1-4.2
	s4.1,1.9,4.1,4.2S36.5,61,34.2,61z M47.2,61c-2.3,0-4.1-1.9-4.1-4.2s1.8-4.2,4.1-4.2s4.1,1.9,4.1,4.2S49.4,61,47.2,61z M60.2,61
	c-2.3,0-4.1-1.9-4.1-4.2s1.8-4.2,4.1-4.2s4.1,1.9,4.1,4.2S62.4,61,60.2,61z"/>
</svg>
