<?xml version="1.0" encoding="utf-8"?>
<!-- Generator: Adobe Illustrator 21.1.0, SVG Export Plug-In . SVG Version: 6.00 Build 0)  -->
<svg version="1.1" id="video" xmlns="http://www.w3.org/2000/svg" xmlns:xlink="http://www.w3.org/1999/xlink" x="0px" y="0px"
	 viewBox="0 0 128 128" style="enable-background:new 0 0 128 128;" xml:space="preserve">
<style type="text/css">
	.st0{fill:#979797;}
	.st1{fill:#515151;}
	.st2{fill:#CBCBCB;}
</style>
<g id="mountian">
	<path id="light" class="st0" d="M61.3,78.1h46.5l-9.3-27.3l-4.3,2.3l-9.3-10.5l-21.3,24l-9.5-4.5L52,63.8
		C56.3,67.5,59.5,72.6,61.3,78.1z"/>
	<path id="dark_1_" class="st1" d="M52,63.8l2.1-1.7l9.5,4.5l11.6-13.1l-13.9-9.7L53,48.3l-5.3-8.5l-5,4l-4.5-6.9L26.5,56.6
		c1.5-0.2,2.9-0.3,4.4-0.3C39,56.3,46.4,59.2,52,63.8C52,63.9,52,63.9,52,63.8z"/>
</g>
<path id="border" class="st2" d="M123.7,14.8H12.2c-2.4,0-4.3,1.9-4.3,4.3v46.2c4.1-3.9,9.3-6.8,15-8.1V28.9c0-1.8,1.5-3.2,3.2-3.2
	h83.6c1.8,0,3.2,1.5,3.2,3.2v58.7c0,1.8-1.5,3.2-3.2,3.2H62.9c-0.3,3.9-1.3,7.5-2.8,10.9h63.6c2.4,0,4.3-1.9,4.3-4.3V19.1
	C128,16.7,126.1,14.8,123.7,14.8z"/>
<path id="play" class="st1" d="M44.5,64.2C31,56.3,13.7,61,5.9,74.6s-3.2,31,10.3,38.9S47,116.6,54.8,103S58,72,44.5,64.2z
	 M49.2,89.8c-0.2,0.3-0.5,0.6-0.8,0.8l-25.3,14.6c-1,0.6-2.3,0.2-2.9-0.8c-0.2-0.3-0.3-0.7-0.3-1.1V74.1c0-1.2,0.9-2.1,2.1-2.1
	c0.4,0,0.8,0.1,1.1,0.3l25.3,14.6C49.4,87.5,49.8,88.8,49.2,89.8z"/>
</svg>
