<?xml version="1.0" encoding="utf-8"?>
<!-- Generator: Adobe Illustrator 23.0.1, SVG Export Plug-In . SVG Version: 6.00 Build 0)  -->
<svg version="1.1" id="Layer_1" xmlns="http://www.w3.org/2000/svg" xmlns:xlink="http://www.w3.org/1999/xlink" x="0px" y="0px"
	 viewBox="0 0 40 40" style="enable-background:new 0 0 40 40;" xml:space="preserve">
<style type="text/css">
	.st0{display:none;fill:#00A3E0;}
	.st1{fill:#FFFFFF;}
	.st2{fill:none;stroke:#FFFFFF;stroke-width:2;stroke-miterlimit:10;}
</style>
<path class="st0" d="M35.74,40H4.26C1.92,40,0,38.08,0,35.74V4.26C0,1.92,1.92,0,4.26,0h31.48C38.08,0,40,1.92,40,4.26v31.48
	C40,38.08,38.08,40,35.74,40z"/>
<path class="st1" d="M28.64,21l-7.86-7.34v4.55c0,0-16.66,3.26-18.21-4.25c-0.42-2.02,2.76-3.6,3.86-3.92L6.42,8.81
	c-1.09,0-6.21,2.39-6.42,6.19c0,9.79,18.18,7.8,20.78,7.8c0,0.76,0,4.57,0,4.57L28.64,21z"/>
<polyline class="st2" points="5.85,15.37 5.85,6.65 39,6.65 39,33.35 5.85,33.35 5.85,25.12 "/>
</svg>
