<?xml version="1.0" encoding="utf-8"?>
<!-- Generator: Adobe Illustrator 23.0.1, SVG Export Plug-In . SVG Version: 6.00 Build 0)  -->
<svg version="1.1" xmlns="http://www.w3.org/2000/svg" xmlns:xlink="http://www.w3.org/1999/xlink" x="0px" y="0px"
	 viewBox="0 0 40.01 40.01" style="enable-background:new 0 0 40.01 40.01;" xml:space="preserve">
<style type="text/css">
	.st0{display:none;}
	.st1{display:inline;fill:#00A3E0;}
	.st2{fill:#FFFFFF;}
	.st3{fill:none;stroke:#FFFFFF;stroke-width:2;stroke-miterlimit:10;}
</style>
<g id="Layer_1" class="st0">
	<path class="st1" d="M36.25,40.01H3.75C1.69,40.01,0,38.32,0,36.26V3.77C0,1.7,1.69,0.01,3.75,0.01h32.49
		C38.31,0.01,40,1.7,40,3.77v32.49C40,38.32,38.31,40.01,36.25,40.01z"/>
	<path class="st2" d="M27.13,25.52l-4.5-4.47c-0.3-0.3-0.82-0.09-0.82,0.34v1.93c0,0.24-0.18,0.44-0.42,0.48
		c-2.55,0.34-16.02,1.9-17.04-3.33c-0.27-1.39,1.54-2.52,2.5-2.91c0.18-0.07,0.29-0.25,0.29-0.45v0c0-0.34-0.34-0.56-0.65-0.44
		c-1.33,0.51-3.88,2.18-4,4.59c0,7.09,15.41,6.15,18.82,6.01c0.27-0.01,0.5,0.21,0.5,0.48v1.98c0,0.41,0.48,0.63,0.79,0.36l4.5-3.87
		C27.32,26.04,27.33,25.71,27.13,25.52z"/>
	<path class="st3" d="M6.72,20.11v-7.16c0-0.26,0.21-0.48,0.48-0.48h23.03c0.26,0,0.48,0.21,0.48,0.48v19.58
		c0,0.26-0.21,0.48-0.48,0.48H7.2c-0.26,0-0.48-0.21-0.48-0.48v-4.04"/>
	<path class="st3" d="M8.87,12.5v-1.62c0-0.26,0.21-0.48,0.48-0.48h23.03c0.26,0,0.48,0.21,0.48,0.48v19.58
		c0,0.26-0.21,0.48-0.48,0.48h-1.77"/>
	<path class="st3" d="M11.01,10.42v-1.6c0-0.26,0.21-0.48,0.48-0.48h23.03c0.26,0,0.48,0.21,0.48,0.48v19.58
		c0,0.26-0.21,0.48-0.48,0.48H32.8"/>
</g>
<g id="Layer_2">
	<path class="st2" d="M0.27,24.58v4.64c0,0,10.31,0,12.32,0.03c5.46,0.03,12.52-16.18,15.06-16.14c1.36,0,5.09,0,5.09,0v4.17
		l7.19-6.32L32.74,4.3v4.44c0,0-4.72-0.03-6.21-0.03c-5.56,0-10.28,15.84-15.23,15.91C10.14,24.61,0.27,24.58,0.27,24.58z"/>
	<g>
		<path class="st2" d="M18.25,13.66c0,0-2.37-4.07-5.77-4.07c-1.9,0-12.49,0-12.49,0v4.69c0,0,10.25,0,11.4,0
			c1.97,0,3.94,3.31,3.94,3.31L18.25,13.66z"/>
		<path class="st2" d="M40,27.78l-7.43-6.32v4.17c0,0-3.86,0-5.26,0c-0.82,0.01-2.09-1.38-3.7-3.46l-3.12,3.83
			c0,0,3.14,4.04,5.66,4.04c1.54,0,6.41-0.03,6.41-0.03v4.44L40,27.78z"/>
	</g>
</g>
</svg>
